<?xml version="1.0" encoding="utf-8"?>
<!-- Generator: Adobe Illustrator 25.4.1, SVG Export Plug-In . SVG Version: 6.00 Build 0)  -->
<svg version="1.1" baseProfile="tiny" id="レイヤー_1"
	 xmlns="http://www.w3.org/2000/svg" xmlns:xlink="http://www.w3.org/1999/xlink" x="0px" y="0px" viewBox="0 0 841.9 595.3"
	 overflow="visible" xml:space="preserve">
<g>
	<g>
		<path fill="#612428" d="M319.1,288.5c0,0,0-0.1-0.1-0.1c0,0-9.9-14.9-9.9-14.9s-7.8-16.7-7.8-16.7c0,0,0-0.1-0.1-0.1
			c0,0-0.1-0.1-0.1-0.1c0,0-15.3-6.8-15.3-6.8s-14.3-14.6-14.3-14.6c0,0-0.1-0.1-0.1-0.1c-0.1,0-0.1,0-0.1,0c0,0-18.3,9.1-18.3,9.1
			s-18.1,0.9-18.1,0.9c0,0-0.1,0-0.1,0c0,0-0.1,0.1-0.1,0.1c0,0-11.4,13.8-11.4,13.8s-14.4,11.1-14.4,11.1c0,0-0.1,0.1-0.1,0.1
			c0,0,0,0.1,0,0.1c0,0-0.9,18.2-0.9,18.2s-4.3,17.7-4.3,17.7c0,0,0,0.1,0,0.1c0,0,0,0.1,0.1,0.1c0,0,9.1,15,9.1,15s6.5,17,6.5,17
			c0,0,0,0.1,0.1,0.1c0,0,0.1,0.1,0.1,0.1c0,0,16.6,6.5,16.6,6.5s14.3,14.6,14.3,14.6c0,0,0.1,0.1,0.1,0.1c0.1,0,0.1,0,0.1,0
			c0,0,18.3-9.1,18.3-9.1s17.6-1.7,17.6-1.7c0,0,0.1,0,0.1,0c0,0,0.1-0.1,0.1-0.1c0,0,12-13,12-13s13.1-11.1,13.2-11.1
			c0,0,0.1-0.1,0.1-0.1c0,0,0-0.1,0-0.1c0,0,2.1-18.2,2.1-18.2s5-17.7,5-17.8C319.1,288.6,319.1,288.5,319.1,288.5z"/>
		<g>
			<g>
				<polygon fill="#D10A2E" points="223.3,259 207.9,288.5 212.8,321.4 236.1,345.2 268.9,350.7 298.7,335.9 314.1,306.4 
					309.2,273.5 285.9,249.7 253.1,244.2 				"/>
			</g>
			<path fill="#7E1C2E" d="M205,268.1c0,0-0.1,0.1-0.1,0.1c0,0,0,0.1,0,0.1c0,0,3,20.2,3,20.2l15.4-29.5
				C223.3,259,205,268.1,205,268.1z"/>
			<path fill="#A00F16" d="M233,240.8c0,0-0.1,0-0.1,0c0,0-0.1,0.1-0.1,0.1c0,0-9.4,18.1-9.4,18.1l29.8-14.8
				C253.1,244.2,233,240.8,233,240.8z"/>
			<path fill="#A00F16" d="M306.2,253.3c0,0,0-0.1-0.1-0.1c0,0-0.1-0.1-0.1-0.1c0,0-20.1-3.4-20.1-3.4l23.3,23.7
				C309.2,273.5,306.2,253.3,306.2,253.3z"/>
			<path fill="#A00F16" d="M323.5,288.3c0,0,0-0.1,0-0.1c0,0,0-0.1-0.1-0.1c0,0-14.3-14.6-14.3-14.6l4.9,32.9
				C314.1,306.4,323.5,288.3,323.5,288.3z"/>
			<path fill="#7E1C2E" d="M316.9,326.8c0,0,0.1-0.1,0.1-0.1c0,0,0-0.1,0-0.1c0,0-3-20.2-3-20.2l-15.4,29.5
				C298.7,335.9,316.9,326.8,316.9,326.8z"/>
			<path fill="#A00F16" d="M289,354.1c0,0,0.1,0,0.1,0c0,0,0.1-0.1,0.1-0.1c0,0,9.4-18.1,9.4-18.1l-29.8,14.8
				C268.9,350.7,289,354.1,289,354.1z"/>
			<path fill="#7E1C2E" d="M215.8,341.6c0,0,0,0.1,0.1,0.1c0,0,0.1,0.1,0.1,0.1c0,0,20.1,3.4,20.1,3.4l-23.3-23.8
				C212.8,321.4,215.8,341.6,215.8,341.6z"/>
			<path fill="#A00F16" d="M198.5,306.6c0,0,0,0.1,0,0.1c0,0,0,0.1,0.1,0.1c0,0,14.3,14.6,14.3,14.6l-4.9-32.9
				C207.9,288.5,198.5,306.6,198.5,306.6z"/>
		</g>
	</g>
	<g>
		<path fill="#612428" d="M319.1,288.5c0,0,0-0.1-0.1-0.1c0,0-9.9-14.9-9.9-14.9s-7.8-16.7-7.8-16.7c0,0,0-0.1-0.1-0.1
			c0,0-0.1-0.1-0.1-0.1c0,0-15.3-6.8-15.3-6.8s-14.3-14.6-14.3-14.6c0,0-0.1-0.1-0.1-0.1c-0.1,0-0.1,0-0.1,0c0,0-18.3,9.1-18.3,9.1
			s-18.1,0.9-18.1,0.9c0,0-0.1,0-0.1,0c0,0-0.1,0.1-0.1,0.1c0,0-11.4,13.8-11.4,13.8s-14.4,11.1-14.4,11.1c0,0-0.1,0.1-0.1,0.1
			c0,0,0,0.1,0,0.1c0,0-0.9,18.2-0.9,18.2s-4.3,17.7-4.3,17.7c0,0,0,0.1,0,0.1c0,0,0,0.1,0.1,0.1c0,0,9.1,15,9.1,15s6.5,17,6.5,17
			c0,0,0,0.1,0.1,0.1c0,0,0.1,0.1,0.1,0.1c0,0,16.6,6.5,16.6,6.5s14.3,14.6,14.3,14.6c0,0,0.1,0.1,0.1,0.1c0.1,0,0.1,0,0.1,0
			c0,0,18.3-9.1,18.3-9.1s17.6-1.7,17.6-1.7c0,0,0.1,0,0.1,0c0,0,0.1-0.1,0.1-0.1c0,0,12-13,12-13s13.1-11.1,13.2-11.1
			c0,0,0.1-0.1,0.1-0.1c0,0,0-0.1,0-0.1c0,0,2.1-18.2,2.1-18.2s5-17.7,5-17.8C319.1,288.6,319.1,288.5,319.1,288.5z"/>
		<g>
			<g>
				<polygon fill="#D10A2E" points="223.3,259 207.9,288.5 212.8,321.4 236.1,345.2 268.9,350.7 298.7,335.9 314.1,306.4 
					309.2,273.5 285.9,249.7 253.1,244.2 				"/>
			</g>
			<path fill="#7E1C2E" d="M205,268.1c0,0-0.1,0.1-0.1,0.1c0,0,0,0.1,0,0.1c0,0,3,20.2,3,20.2l15.4-29.5
				C223.3,259,205,268.1,205,268.1z"/>
			<path fill="#A00F16" d="M233,240.8c0,0-0.1,0-0.1,0c0,0-0.1,0.1-0.1,0.1c0,0-9.4,18.1-9.4,18.1l29.8-14.8
				C253.1,244.2,233,240.8,233,240.8z"/>
			<path fill="#A00F16" d="M306.2,253.3c0,0,0-0.1-0.1-0.1c0,0-0.1-0.1-0.1-0.1c0,0-20.1-3.4-20.1-3.4l23.3,23.7
				C309.2,273.5,306.2,253.3,306.2,253.3z"/>
			<path fill="#A00F16" d="M323.5,288.3c0,0,0-0.1,0-0.1c0,0,0-0.1-0.1-0.1c0,0-14.3-14.6-14.3-14.6l4.9,32.9
				C314.1,306.4,323.5,288.3,323.5,288.3z"/>
			<path fill="#7E1C2E" d="M316.9,326.8c0,0,0.1-0.1,0.1-0.1c0,0,0-0.1,0-0.1c0,0-3-20.2-3-20.2l-15.4,29.5
				C298.7,335.9,316.9,326.8,316.9,326.8z"/>
			<path fill="#A00F16" d="M289,354.1c0,0,0.1,0,0.1,0c0,0,0.1-0.1,0.1-0.1c0,0,9.4-18.1,9.4-18.1l-29.8,14.8
				C268.9,350.7,289,354.1,289,354.1z"/>
			<path fill="#7E1C2E" d="M215.8,341.6c0,0,0,0.1,0.1,0.1c0,0,0.1,0.1,0.1,0.1c0,0,20.1,3.4,20.1,3.4l-23.3-23.8
				C212.8,321.4,215.8,341.6,215.8,341.6z"/>
			<path fill="#A00F16" d="M198.5,306.6c0,0,0,0.1,0,0.1c0,0,0,0.1,0.1,0.1c0,0,14.3,14.6,14.3,14.6l-4.9-32.9
				C207.9,288.5,198.5,306.6,198.5,306.6z"/>
		</g>
	</g>
</g>
<g>
	<g>
		<g>
			<path d="M358.3,330.1c1,0,1.9,0.1,2.5,0.3c0.7,0.2,1.2,0.5,1.6,0.8c0.4,0.3,0.7,0.6,0.9,0.9c0.2,0.3,0.3,0.5,0.4,0.7h0.3l0.9-2.8
				c-1.1-0.5-2.3-0.9-3.3-1.1c-1.1-0.2-2.2-0.3-3.4-0.3c-1.9,0-3.6,0.3-5,0.8c-1.4,0.5-2.6,1.3-3.5,2.2c-0.9,0.9-1.6,2-2.1,3.3
				c-0.5,1.3-0.7,2.6-0.7,4.1c0,1.6,0.3,3,0.8,4.3c0.6,1.2,1.3,2.3,2.2,3.1c0.9,0.8,2,1.5,3.3,1.9c1.2,0.4,2.6,0.6,4,0.6
				c2.7,0,5.1-0.6,7.3-1.8l0.3-2.8l-0.3-0.2c-0.3,0.4-0.7,0.8-1.1,1.1c-0.4,0.4-0.9,0.7-1.4,1c-0.5,0.3-1.1,0.6-1.8,0.8
				c-0.7,0.2-1.5,0.3-2.3,0.3c-0.6,0-1.2-0.1-1.8-0.2c-0.5-0.1-1-0.3-1.4-0.6c-0.4-0.3-0.8-0.5-1.1-0.8c-0.3-0.3-0.6-0.6-0.9-1
				c-0.4-0.6-0.8-1.2-1-1.8c-0.2-0.6-0.4-1.2-0.5-1.7c-0.1-0.5-0.2-1-0.2-1.5c0-0.4,0-0.8,0-1c0-2.7,0.6-4.9,1.9-6.3
				C354,330.8,355.8,330.1,358.3,330.1z"/>
			<path d="M387.5,335.2c0-1.2,0.1-2.4,0.1-3.6c0-1.2,0.1-2.1,0.2-2.9h-4.1c0,0.5,0,1,0.1,1.3c0,0.3,0,0.5,0,0.7l0,0.7
				c0,0.2,0,0.4,0,0.6c0,0.2,0,0.5,0,1c0,0.5,0,1,0,1.5c0,0.5,0,1,0,1.5c0,0.5,0,0.8,0,1c-0.9,0-1.7,0.1-2.6,0.1c-0.9,0-1.7,0-2.6,0
				c-0.7,0-1.4,0-2.2,0c-0.7,0-1.4,0-2.2-0.1c0-1.3,0-2.4,0-3.3c0-0.9,0-1.6,0.1-2.2c0-0.6,0.1-1.1,0.1-1.5c0-0.4,0.1-0.8,0.1-1.2
				h-4c0.1,1.1,0.2,2.2,0.2,3.3c0,1.1,0.1,2.2,0.1,3.3c0,2.2,0,4.4,0,6.5c0,2.1-0.1,4.3-0.2,6.5h4c0-0.5-0.1-0.9-0.1-1.3
				c0-0.4-0.1-0.9-0.1-1.4c0-0.5,0-1.1-0.1-1.7c0-0.7,0-1.5,0-2.4v-2.9c0.8,0,1.6-0.1,2.5-0.1c0.8,0,1.6,0,2.5,0c0.8,0,1.6,0,2.3,0
				c0.8,0,1.5,0,2.3,0.1l0,4.6c0,0.3,0,0.7,0,1.2c0,0.5,0,1-0.1,1.6c0,0.5-0.1,1-0.1,1.5c0,0.4,0,0.7,0,0.9h4l-0.2-1.8
				c0-0.5-0.1-1-0.1-1.5c0-1.2,0-2.3,0-3.5c0-0.7,0-1.7,0-2.9C387.4,337.6,387.5,336.5,387.5,335.2z"/>
			<path d="M398.2,333.5c0-0.9,0.1-1.8,0.1-2.7c0-0.8,0.1-1.5,0.2-2.1h-4.1l0.2,2.2c0,0.5,0.1,1,0.1,1.4c0,1,0,2,0,3
				c0,2.5,0,4.8,0,7.1c0,2.3-0.1,4.3-0.3,6h4.1c-0.1-1.2-0.2-2.5-0.2-4.1c0-1.6-0.1-3.4-0.1-5.6c0-0.7,0-1.6,0-2.5
				S398.1,334.4,398.2,333.5z"/>
			<path d="M416.8,339.1c-0.5-0.4-1.1-0.7-1.8-0.9c-0.7-0.2-1.4-0.3-2.2-0.4c0.6-0.1,1.2-0.2,1.7-0.5c0.6-0.2,1.1-0.5,1.6-0.9
				c0.5-0.4,0.8-0.8,1.1-1.3c0.3-0.5,0.4-1.1,0.4-1.8c0-0.9-0.2-1.7-0.5-2.3c-0.3-0.6-0.8-1.1-1.3-1.4c-0.6-0.3-1.2-0.6-1.9-0.7
				c-0.7-0.1-1.5-0.2-2.3-0.2h-6.5c0.1,1.6,0.2,3.2,0.2,4.7c0,1.6,0,3.2,0,4.8c0,1.5,0,3.2,0,5c0,1.8-0.1,3.5-0.2,5.2h6.4
				c0.8,0,1.5-0.1,2-0.2c0.6-0.1,1-0.2,1.4-0.4c0.4-0.2,0.7-0.3,1-0.5c0.3-0.2,0.5-0.4,0.7-0.6c0.1-0.1,0.3-0.3,0.5-0.5
				c0.2-0.2,0.4-0.5,0.6-0.8c0.2-0.3,0.4-0.7,0.5-1.1c0.1-0.4,0.2-0.9,0.2-1.4c0-0.9-0.1-1.7-0.4-2.3
				C417.7,340,417.3,339.5,416.8,339.1z M408.8,332.6c0-0.4,0-0.8,0-1.2c0-0.4,0-0.8,0-1.2c0.6-0.1,1.3-0.1,2-0.1
				c1,0,1.8,0.3,2.3,0.9c0.5,0.6,0.8,1.4,0.8,2.4c0,1.3-0.3,2.2-1,2.8c-0.7,0.6-1.6,1-2.9,1c-0.2,0-0.4,0-0.6,0c-0.2,0-0.4,0-0.6,0
				V332.6z M413.6,346c-0.7,0.7-1.8,1-3.1,1c-0.3,0-0.5,0-0.8-0.1c-0.2,0-0.5-0.1-0.8-0.1c0-0.4,0-0.8,0-1.3c0-0.5,0-0.8,0-1.1v-5.8
				c0.4-0.1,0.7-0.1,1-0.1c0.7,0,1.4,0.1,2,0.2c0.6,0.1,1.1,0.4,1.5,0.7c0.4,0.3,0.7,0.8,1,1.3c0.2,0.6,0.3,1.2,0.3,2.1
				C414.7,344.3,414.3,345.3,413.6,346z"/>
			<path d="M439.3,343.5c-0.4-0.9-0.8-1.7-1.1-2.5c-0.4-0.8-0.7-1.5-0.9-2.2c-0.3-0.6-0.6-1.3-0.9-2.1c-0.3-0.8-0.7-1.6-1-2.5
				c-0.4-0.9-0.7-1.8-1.1-2.8c-0.4-1-0.7-2-1.1-2.9h-1.9c-0.2,0.6-0.4,1.3-0.7,2c-0.3,0.8-0.7,1.7-1.1,2.7c-0.4,1-0.9,2.2-1.5,3.5
				c-0.6,1.3-1.2,2.8-1.9,4.4l-3.3,7.4h2.7c0.2-0.8,0.6-1.8,1-2.9c0.4-1.1,0.9-2.2,1.3-3.3c0.6,0,1.1-0.1,1.7-0.1c0.6,0,1.1,0,1.7,0
				c0.6,0,1.2,0,1.8,0c0.6,0,1.2,0,1.8,0.1l1.2,3l1.2,3.2h4.4c-0.3-0.7-0.7-1.5-1.1-2.3C440.1,345.3,439.7,344.4,439.3,343.5z
				 M432.6,340.5c-0.4,0-0.9,0-1.3,0c-0.5,0-1,0-1.5-0.1c-0.5,0-1,0-1.5-0.1l2.9-7.1l2.7,7.1C433.5,340.5,433,340.5,432.6,340.5z"/>
		</g>
		<g>
			<path d="M469.5,334.4c0,1.9,0,3.7,0,5.6c0,0.6,0,1.1,0,1.5c0,0.4,0,0.8-0.1,1.1c0,0.3-0.1,0.6-0.1,0.8c0,0.2-0.1,0.4-0.2,0.5
				c-0.3,0.9-0.9,1.6-1.8,2.1c-0.9,0.5-1.9,0.8-3,0.8c-1,0-1.9-0.2-2.7-0.5c-0.7-0.3-1.3-0.7-1.8-1.3c-0.2-0.3-0.4-0.6-0.5-0.9
				c-0.1-0.3-0.2-0.7-0.3-1.2c-0.1-0.5-0.1-1.1-0.1-1.8c0-0.7,0-1.7,0-2.8c0-1.2,0-2.5,0-3.8c0-1.3,0-2.5,0.1-3.6l0.1-2.2h-3.9
				c0,0.4,0,0.8,0.1,1.2c0,0.5,0,0.9,0,1.4c0,0.5,0,0.9,0,1.4c0,0.5,0,0.9,0,1.2v7.8c0,0.1,0,0.4,0,0.7c0,0.3,0,0.6,0.1,0.8
				c0.2,1.1,0.5,2,1.1,2.7c0.6,0.7,1.2,1.3,2,1.7c0.8,0.4,1.6,0.7,2.5,0.9c0.9,0.2,1.8,0.2,2.7,0.2c0.8,0,1.6-0.1,2.5-0.3
				c0.9-0.2,1.7-0.5,2.4-0.9c0.5-0.3,0.9-0.6,1.3-1c0.4-0.4,0.7-0.8,0.9-1.3c0.2-0.5,0.4-1,0.6-1.7c0.1-0.6,0.2-1.4,0.2-2.2
				c0-0.7,0-1.6,0.1-2.6c0-1,0-2.1,0.1-3.2c0-1.1,0-2.1,0.1-3.1c0-1,0.1-1.8,0.1-2.4l0.1-1.4h-2.7
				C469.4,330.7,469.5,332.6,469.5,334.4z"/>
			<path d="M506.1,333.5c0-0.9,0-1.8,0.1-2.7c0-0.8,0.1-1.5,0.2-2.1h-4.1c0.1,1.4,0.3,2.6,0.3,3.7c0,1.1,0,2,0,3c0,2.5,0,4.8,0,7.1
				c0,2.3-0.1,4.2-0.3,6h4.1c-0.1-1.2-0.2-2.5-0.2-4.1c0-1.6-0.1-3.4-0.1-5.6c0-0.7,0-1.6,0-2.5
				C506.1,335.4,506.1,334.5,506.1,333.5z"/>
			<path d="M527,331c-0.3,0.8-0.6,1.7-0.9,2.5c-0.3,0.9-0.7,1.7-1,2.6c-0.3,0.9-0.6,1.7-0.9,2.4c-0.3,0.7-0.5,1.3-0.7,1.8
				c-0.2,0.5-0.3,0.8-0.3,0.9l-1.1,2.7c-0.3-0.8-0.7-1.5-1-2.3c-0.3-0.7-0.7-1.5-1-2.3c-0.6-1.5-1.1-2.8-1.5-3.8
				c-0.4-1-0.7-1.9-1-2.6c-0.3-0.7-0.5-1.4-0.7-2c-0.2-0.6-0.4-1.3-0.6-2h-4.5c0.1,0.2,0.2,0.4,0.4,0.8c0.2,0.4,0.4,0.8,0.6,1.3
				c0.2,0.5,0.4,0.9,0.6,1.3c0.2,0.4,0.3,0.7,0.4,0.9c0.1,0.2,0.2,0.4,0.3,0.7c0.1,0.3,0.3,0.7,0.5,1.1c0.2,0.4,0.4,0.9,0.5,1.3
				c0.2,0.5,0.4,0.9,0.6,1.3c0.2,0.4,0.3,0.8,0.5,1.2c0.1,0.3,0.2,0.6,0.3,0.8c0.5,1.2,0.9,2.1,1.2,2.9c0.3,0.7,0.6,1.4,0.8,2
				c0.2,0.6,0.4,1.2,0.6,1.8c0.2,0.6,0.5,1.4,0.8,2.3h2.4c0.6-1.8,1.3-3.6,2-5.3c0.7-1.7,1.4-3.5,2.1-5.2c0.3-0.6,0.6-1.4,0.9-2.2
				c0.3-0.8,0.7-1.6,1.1-2.4c0.4-0.8,0.7-1.6,1.1-2.4c0.4-0.8,0.7-1.5,1-2.1h-2.7C527.5,329.4,527.3,330.1,527,331z"/>
			<path d="M543.3,346.7c-0.7,0-1.7,0-2.2,0c-0.5,0-1.2,0-1.4,0v-7.8c0.7,0,1.6,0,2.3,0c0.7,0,1.8,0,2.5,0c0.4,0,1.1,0,1.5,0.1
				c0.4,0,0.7,0,1.1,0.1v-2c-0.4,0-0.9,0.1-1.4,0.1c-0.6,0-1.5,0.1-2.1,0.1c-0.6,0-1.6,0-2.2,0c-0.5,0-1.3,0-1.7,0v-6.7
				c0.6,0,1.5,0,1.9,0c0.4,0,1.2,0,1.5,0c0.3,0,0.5,0,0.7,0c0.2,0,0.4,0,0.7,0l3.1,0.1v-2c-1,0-2.4,0.1-3.3,0.1
				c-0.9,0-2.2,0.1-2.8,0.1c-0.4,0-1.1,0-1.6,0c-0.5,0-0.9,0-1.4,0c-0.5,0-0.9,0-1.4-0.1c-0.4,0-0.8,0-1.2-0.1
				c0.1,0.7,0.1,1.6,0.1,2.6c0,1,0.1,1.9,0.1,2.9c0,0.9,0,1.8,0,2.6c0,0.8,0,1.3,0,1.6c0,0.3,0,0.8,0,1.3c0,0.6,0,1.2,0,1.8
				c0,0.6,0,1.2,0,1.8c0,0.6,0,1.1,0,1.5c0,0.6,0,1.2-0.1,1.8c0,0.6,0,1.2-0.1,1.8c1.8-0.1,3.9-0.2,5.7-0.2c1.8,0,4.4,0.1,6.1,0.2
				v-2c-0.6,0-1.3,0.1-2,0.1C545.1,346.6,544,346.6,543.3,346.7z"/>
			<path d="M567.4,345.6c-0.3-0.5-0.7-1-1.1-1.5c-0.4-0.6-0.9-1.2-1.5-2c-0.2-0.3-0.5-0.7-0.7-1.1c-0.3-0.4-0.5-0.8-0.7-1.1
				l-0.8-1.1c0.6-0.1,1.3-0.3,1.9-0.6c0.6-0.3,1.1-0.6,1.6-1.1c0.5-0.4,0.8-0.9,1.1-1.6c0.3-0.6,0.4-1.3,0.4-2.1
				c0-0.6-0.1-1.2-0.3-1.8c-0.2-0.6-0.6-1-1-1.5c-0.6-0.6-1.3-1-2-1.2c-0.7-0.2-1.6-0.3-2.5-0.3H554c0.1,0.9,0.1,1.7,0.1,2.3
				c0,0.6,0,1.1,0.1,1.7c0,0.5,0,1.1,0,1.7c0,0.6,0,1.4,0,2.3c0,0.9,0,1.7,0,2.4s0,1.3,0,1.9c0,0.6,0,1.1,0,1.6c0,0.5,0,1,0,1.6
				c0,0.6,0,1.2-0.1,1.9c0,0.7-0.1,1.5-0.1,2.4h3.9c0-0.2,0-0.5,0-1c0-0.5,0-1,0-1.6c0-0.6,0-1.1,0-1.6c0-0.5,0-0.9,0-1.1v-4.1h0.7
				c0.8,1.1,1.6,2.2,2.4,3.4c0.8,1.2,1.6,2.4,2.4,3.5c0.2,0.3,0.5,0.7,0.7,1.2c0.3,0.5,0.5,0.9,0.7,1.2h4.9
				c-0.5-0.6-0.9-1.1-1.2-1.5C568.1,346.5,567.7,346.1,567.4,345.6z M559.7,337.9c-0.4,0-0.7,0-1.1,0c-0.3,0-0.6,0-0.9-0.1v-7.4
				c0.2,0,0.5,0,1-0.1c0.4,0,0.8,0,1.1,0c0.5,0,0.9,0,1.4,0.1c0.5,0.1,0.9,0.3,1.3,0.6c0.5,0.4,0.8,0.8,1,1.3
				c0.2,0.5,0.2,1.1,0.2,1.7c0,0.5-0.1,0.9-0.2,1.4c-0.1,0.5-0.4,0.9-0.7,1.3c-0.3,0.4-0.7,0.7-1.2,0.9
				C561.1,337.8,560.5,337.9,559.7,337.9z"/>
			<path d="M585.5,340.9c-0.1-0.3-0.2-0.7-0.4-1c-0.2-0.4-0.4-0.7-0.7-1c-0.2-0.2-0.4-0.4-0.6-0.6c-0.2-0.2-0.5-0.3-0.8-0.5
				c-0.3-0.2-0.7-0.3-1.1-0.5c-0.4-0.2-0.9-0.3-1.4-0.6c-0.6-0.2-1.2-0.5-1.7-0.7c-0.5-0.2-0.9-0.4-1.3-0.7
				c-0.3-0.3-0.6-0.6-0.8-0.9c-0.2-0.4-0.3-0.8-0.3-1.3c0-0.8,0.3-1.6,0.9-2.2c0.6-0.6,1.4-0.9,2.5-0.9c0.9,0,1.7,0.2,2.4,0.6
				c0.7,0.4,1.1,1,1.3,1.9h0.4l0.9-2.7c-0.7-0.3-1.4-0.6-2.1-0.8c-0.7-0.2-1.6-0.3-2.6-0.3c-1.3,0-2.4,0.2-3.2,0.5
				c-0.9,0.4-1.5,0.8-2.1,1.4c-0.5,0.6-0.9,1.2-1.1,1.9c-0.2,0.7-0.3,1.3-0.3,2c0,0.6,0.1,1.1,0.2,1.6c0.1,0.5,0.3,0.9,0.6,1.3
				c0.3,0.4,0.7,0.8,1.1,1.1c0.5,0.3,1.1,0.7,1.7,1c0.4,0.2,0.9,0.4,1.5,0.6c0.6,0.2,1.1,0.4,1.5,0.6c0.1,0.1,0.3,0.2,0.6,0.3
				c0.3,0.1,0.5,0.3,0.8,0.6c0.3,0.3,0.5,0.6,0.7,1c0.2,0.4,0.3,0.9,0.3,1.4c0,0.5-0.1,1-0.3,1.4c-0.2,0.4-0.4,0.8-0.8,1.1
				c-0.3,0.3-0.7,0.6-1.2,0.7c-0.5,0.2-1,0.3-1.6,0.3c-0.4,0-0.8,0-1.2-0.1c-0.4-0.1-0.8-0.2-1.1-0.5c-0.4-0.2-0.7-0.6-1.1-1
				c-0.3-0.4-0.7-1-1-1.7h-0.4l-0.7,3.2c0.2,0.1,0.6,0.3,0.9,0.4c0.4,0.2,0.8,0.3,1.2,0.5c0.4,0.2,0.9,0.3,1.5,0.4
				c0.5,0.1,1.1,0.2,1.7,0.2c1.3,0,2.4-0.2,3.4-0.6c0.9-0.4,1.7-0.9,2.3-1.5c0.6-0.6,1-1.3,1.3-2c0.3-0.7,0.4-1.5,0.4-2.2
				c0-0.2,0-0.4-0.1-0.7C585.7,341.6,585.6,341.2,585.5,340.9z"/>
			<path d="M595.4,333.5c0-0.9,0.1-1.8,0.1-2.7c0-0.8,0.1-1.5,0.2-2.1h-4.1c0.2,1.4,0.2,2.6,0.3,3.7c0,1.1,0,2,0,3
				c0,2.5,0,4.8,0,7.1c0,2.3-0.1,4.2-0.3,6h4.1c-0.1-1.2-0.2-2.5-0.2-4.1c0-1.6-0.1-3.4-0.1-5.6c0-0.7,0-1.6,0-2.5
				C595.4,335.4,595.4,334.5,595.4,333.5z"/>
			<path d="M609.3,329c-0.5,0-1.2,0-1.8,0c-0.7,0-1.3,0-2,0c-0.7,0-1.3,0-2-0.1c-0.7,0-1.3-0.1-1.9-0.1v2.1c0.4,0,0.8-0.1,1.3-0.1
				c0.5,0,1-0.1,1.4-0.1c0.5,0,0.9,0,1.2,0c0.3,0,0.5,0,0.6,0h1.4c0,0.6,0,1.1,0,1.6c0,0.5,0,1,0,1.6l0,8c0,1.1,0,2.2-0.1,3.3
				c-0.1,1.1-0.1,2.2-0.2,3.3h4c0-0.4-0.1-0.9-0.1-1.4c0-0.6-0.1-1.4-0.1-2.5v-10.6c0-0.6,0-1.1,0-1.6c0-0.5,0-1.1,0-1.6
				c1,0,2,0,2.9,0c1,0,1.9,0.1,2.8,0.2v-2.1c-1.4,0.1-2.7,0.1-4,0.1C611.7,329,610.5,329,609.3,329z"/>
			<path d="M493.5,332.7c0.1,1.1,0.1,2.3,0.1,3.4v6.4c-0.3-0.2-0.6-0.4-0.8-0.6c-0.2-0.2-0.4-0.4-0.7-0.6l-3.4-3.3
				c-0.9-0.8-1.7-1.6-2.5-2.4c-0.8-0.8-1.5-1.5-2.2-2.3c-0.7-0.7-1.4-1.5-2.1-2.2c-0.7-0.7-1.4-1.5-2.1-2.2h-1.4c0,1.3,0,2.7,0,4
				c0,1.3,0,2.7,0,4v3.9c0,0.2,0,0.5,0,0.8c0,0.3,0,0.7,0,1.1c0,0.4,0,0.7,0,1.1c0,0.3,0,0.6,0,0.8l-0.2,4h2.5
				c-0.1-0.7-0.1-1.2-0.1-1.6c0-0.4-0.1-0.8-0.1-1.1c0-0.3,0-0.6,0-0.9c0-0.3,0-0.6,0-1.1c0-0.8,0-1.5,0-2.1c0-0.7,0-1.3,0-2.1
				c0-0.7,0-1.4,0-2.2c0-0.8,0-1.6,0-2.6c0.5,0.5,1.1,1,1.8,1.7c0.7,0.7,1.5,1.4,2.3,2.2c0.8,0.8,1.7,1.6,2.6,2.5
				c0.9,0.9,1.8,1.6,2.6,2.5c0.9,0.9,1.7,1.7,2.5,2.5c0.8,0.8,1.5,1.5,2.1,2.2h1.2c0-0.2,0-0.4,0-0.6c0-0.3,0-0.5,0-0.8
				c0-0.3,0-0.5,0-0.8c0-0.2,0-0.4,0-0.6c0-0.4,0-0.9,0-1.5c0-0.6,0-1.2,0-1.9c0-0.7,0-1.4,0-2.1c0-0.7,0-1.2,0-1.6c0-1.1,0-2,0-2.8
				c0-0.8,0-1.6,0-2.3c0-0.7,0.1-1.5,0.1-2.2c0-0.7,0.1-1.5,0.2-2.4h-2.5L493.5,332.7z"/>
			<path d="M627.7,348.5c0-0.6,0-1.2,0.1-1.9c0-0.7,0-1.4,0.1-2.2c0-0.7,0-1.4,0-2.1c0-0.7,0-1.2,0-1.6l-1.7-2.9
				c-0.4-0.6-0.8-1.3-1.2-2.1c-0.5-0.8-1-1.6-1.4-2.4c-0.5-0.8-1-1.6-1.5-2.4c-0.5-0.8-0.9-1.5-1.3-2.1h4.7c0.4,0.8,0.7,1.5,1.1,2.2
				c0.3,0.7,0.7,1.4,1.1,2.2c0.4,0.7,0.8,1.5,1.3,2.4c0.5,0.9,1,1.8,1.6,2.9c0.6-1.1,1.1-1.9,1.5-2.7c0.4-0.7,0.8-1.4,1.1-2.1
				c0.3-0.7,0.7-1.4,1-2.1c0.4-0.8,0.8-1.7,1.3-2.8h2.9c-0.1,0.2-0.3,0.5-0.6,1c-0.3,0.5-0.6,0.9-0.9,1.5c-0.3,0.5-0.6,1-0.9,1.4
				c-0.3,0.4-0.5,0.8-0.6,0.9c-0.7,1-1.3,2.1-1.8,3.1c-0.6,1.1-1.2,2.1-1.8,3.1c-0.1,0.2-0.2,0.3-0.3,0.5c-0.1,0.2-0.1,0.3-0.1,0.4
				v1.1c0,0.6,0,1.2,0,1.7c0,0.5,0,1,0,1.5c0,0.5,0,1.1,0.1,1.6c0,0.5,0,1.1,0.1,1.8H627.7z"/>
		</g>
	</g>
	<g>
		<g>
			<path d="M358.3,330.1c1,0,1.9,0.1,2.5,0.3c0.7,0.2,1.2,0.5,1.6,0.8c0.4,0.3,0.7,0.6,0.9,0.9c0.2,0.3,0.3,0.5,0.4,0.7h0.3l0.9-2.8
				c-1.1-0.5-2.3-0.9-3.3-1.1c-1.1-0.2-2.2-0.3-3.4-0.3c-1.9,0-3.6,0.3-5,0.8c-1.4,0.5-2.6,1.3-3.5,2.2c-0.9,0.9-1.6,2-2.1,3.3
				c-0.5,1.3-0.7,2.6-0.7,4.1c0,1.6,0.3,3,0.8,4.3c0.6,1.2,1.3,2.3,2.2,3.1c0.9,0.8,2,1.5,3.3,1.9c1.2,0.4,2.6,0.6,4,0.6
				c2.7,0,5.1-0.6,7.3-1.8l0.3-2.8l-0.3-0.2c-0.3,0.4-0.7,0.8-1.1,1.1c-0.4,0.4-0.9,0.7-1.4,1c-0.5,0.3-1.1,0.6-1.8,0.8
				c-0.7,0.2-1.5,0.3-2.3,0.3c-0.6,0-1.2-0.1-1.8-0.2c-0.5-0.1-1-0.3-1.4-0.6c-0.4-0.3-0.8-0.5-1.1-0.8c-0.3-0.3-0.6-0.6-0.9-1
				c-0.4-0.6-0.8-1.2-1-1.8c-0.2-0.6-0.4-1.2-0.5-1.7c-0.1-0.5-0.2-1-0.2-1.5c0-0.4,0-0.8,0-1c0-2.7,0.6-4.9,1.9-6.3
				C354,330.8,355.8,330.1,358.3,330.1z"/>
			<path d="M387.5,335.2c0-1.2,0.1-2.4,0.1-3.6c0-1.2,0.1-2.1,0.2-2.9h-4.1c0,0.5,0,1,0.1,1.3c0,0.3,0,0.5,0,0.7l0,0.7
				c0,0.2,0,0.4,0,0.6c0,0.2,0,0.5,0,1c0,0.5,0,1,0,1.5c0,0.5,0,1,0,1.5c0,0.5,0,0.8,0,1c-0.9,0-1.7,0.1-2.6,0.1c-0.9,0-1.7,0-2.6,0
				c-0.7,0-1.4,0-2.2,0c-0.7,0-1.4,0-2.2-0.1c0-1.3,0-2.4,0-3.3c0-0.9,0-1.6,0.1-2.2c0-0.6,0.1-1.1,0.1-1.5c0-0.4,0.1-0.8,0.1-1.2
				h-4c0.1,1.1,0.2,2.2,0.2,3.3c0,1.1,0.1,2.2,0.1,3.3c0,2.2,0,4.4,0,6.5c0,2.1-0.1,4.3-0.2,6.5h4c0-0.5-0.1-0.9-0.1-1.3
				c0-0.4-0.1-0.9-0.1-1.4c0-0.5,0-1.1-0.1-1.7c0-0.7,0-1.5,0-2.4v-2.9c0.8,0,1.6-0.1,2.5-0.1c0.8,0,1.6,0,2.5,0c0.8,0,1.6,0,2.3,0
				c0.8,0,1.5,0,2.3,0.1l0,4.6c0,0.3,0,0.7,0,1.2c0,0.5,0,1-0.1,1.6c0,0.5-0.1,1-0.1,1.5c0,0.4,0,0.7,0,0.9h4l-0.2-1.8
				c0-0.5-0.1-1-0.1-1.5c0-1.2,0-2.3,0-3.5c0-0.7,0-1.7,0-2.9C387.4,337.6,387.5,336.5,387.5,335.2z"/>
			<path d="M398.2,333.5c0-0.9,0.1-1.8,0.1-2.7c0-0.8,0.1-1.5,0.2-2.1h-4.1l0.2,2.2c0,0.5,0.1,1,0.1,1.4c0,1,0,2,0,3
				c0,2.5,0,4.8,0,7.1c0,2.3-0.1,4.3-0.3,6h4.1c-0.1-1.2-0.2-2.5-0.2-4.1c0-1.6-0.1-3.4-0.1-5.6c0-0.7,0-1.6,0-2.5
				S398.1,334.4,398.2,333.5z"/>
			<path d="M416.8,339.1c-0.5-0.4-1.1-0.7-1.8-0.9c-0.7-0.2-1.4-0.3-2.2-0.4c0.6-0.1,1.2-0.2,1.7-0.5c0.6-0.2,1.1-0.5,1.6-0.9
				c0.5-0.4,0.8-0.8,1.1-1.3c0.3-0.5,0.4-1.1,0.4-1.8c0-0.9-0.2-1.7-0.5-2.3c-0.3-0.6-0.8-1.1-1.3-1.4c-0.6-0.3-1.2-0.6-1.9-0.7
				c-0.7-0.1-1.5-0.2-2.3-0.2h-6.5c0.1,1.6,0.2,3.2,0.2,4.7c0,1.6,0,3.2,0,4.8c0,1.5,0,3.2,0,5c0,1.8-0.1,3.5-0.2,5.2h6.4
				c0.8,0,1.5-0.1,2-0.2c0.6-0.1,1-0.2,1.4-0.4c0.4-0.2,0.7-0.3,1-0.5c0.3-0.2,0.5-0.4,0.7-0.6c0.1-0.1,0.3-0.3,0.5-0.5
				c0.2-0.2,0.4-0.5,0.6-0.8c0.2-0.3,0.4-0.7,0.5-1.1c0.1-0.4,0.2-0.9,0.2-1.4c0-0.9-0.1-1.7-0.4-2.3
				C417.7,340,417.3,339.5,416.8,339.1z M408.8,332.6c0-0.4,0-0.8,0-1.2c0-0.4,0-0.8,0-1.2c0.6-0.1,1.3-0.1,2-0.1
				c1,0,1.8,0.3,2.3,0.9c0.5,0.6,0.8,1.4,0.8,2.4c0,1.3-0.3,2.2-1,2.8c-0.7,0.6-1.6,1-2.9,1c-0.2,0-0.4,0-0.6,0c-0.2,0-0.4,0-0.6,0
				V332.6z M413.6,346c-0.7,0.7-1.8,1-3.1,1c-0.3,0-0.5,0-0.8-0.1c-0.2,0-0.5-0.1-0.8-0.1c0-0.4,0-0.8,0-1.3c0-0.5,0-0.8,0-1.1v-5.8
				c0.4-0.1,0.7-0.1,1-0.1c0.7,0,1.4,0.1,2,0.2c0.6,0.1,1.1,0.4,1.5,0.7c0.4,0.3,0.7,0.8,1,1.3c0.2,0.6,0.3,1.2,0.3,2.1
				C414.7,344.3,414.3,345.3,413.6,346z"/>
			<path d="M439.3,343.5c-0.4-0.9-0.8-1.7-1.1-2.5c-0.4-0.8-0.7-1.5-0.9-2.2c-0.3-0.6-0.6-1.3-0.9-2.1c-0.3-0.8-0.7-1.6-1-2.5
				c-0.4-0.9-0.7-1.8-1.1-2.8c-0.4-1-0.7-2-1.1-2.9h-1.9c-0.2,0.6-0.4,1.3-0.7,2c-0.3,0.8-0.7,1.7-1.1,2.7c-0.4,1-0.9,2.2-1.5,3.5
				c-0.6,1.3-1.2,2.8-1.9,4.4l-3.3,7.4h2.7c0.2-0.8,0.6-1.8,1-2.9c0.4-1.1,0.9-2.2,1.3-3.3c0.6,0,1.1-0.1,1.7-0.1c0.6,0,1.1,0,1.7,0
				c0.6,0,1.2,0,1.8,0c0.6,0,1.2,0,1.8,0.1l1.2,3l1.2,3.2h4.4c-0.3-0.7-0.7-1.5-1.1-2.3C440.1,345.3,439.7,344.4,439.3,343.5z
				 M432.6,340.5c-0.4,0-0.9,0-1.3,0c-0.5,0-1,0-1.5-0.1c-0.5,0-1,0-1.5-0.1l2.9-7.1l2.7,7.1C433.5,340.5,433,340.5,432.6,340.5z"/>
		</g>
		<g>
			<path d="M469.5,334.4c0,1.9,0,3.7,0,5.6c0,0.6,0,1.1,0,1.5c0,0.4,0,0.8-0.1,1.1c0,0.3-0.1,0.6-0.1,0.8c0,0.2-0.1,0.4-0.2,0.5
				c-0.3,0.9-0.9,1.6-1.8,2.1c-0.9,0.5-1.9,0.8-3,0.8c-1,0-1.9-0.2-2.7-0.5c-0.7-0.3-1.3-0.7-1.8-1.3c-0.2-0.3-0.4-0.6-0.5-0.9
				c-0.1-0.3-0.2-0.7-0.3-1.2c-0.1-0.5-0.1-1.1-0.1-1.8c0-0.7,0-1.7,0-2.8c0-1.2,0-2.5,0-3.8c0-1.3,0-2.5,0.1-3.6l0.1-2.2h-3.9
				c0,0.4,0,0.8,0.1,1.2c0,0.5,0,0.9,0,1.4c0,0.5,0,0.9,0,1.4c0,0.5,0,0.9,0,1.2v7.8c0,0.1,0,0.4,0,0.7c0,0.3,0,0.6,0.1,0.8
				c0.2,1.1,0.5,2,1.1,2.7c0.6,0.7,1.2,1.3,2,1.7c0.8,0.4,1.6,0.7,2.5,0.9c0.9,0.2,1.8,0.2,2.7,0.2c0.8,0,1.6-0.1,2.5-0.3
				c0.9-0.2,1.7-0.5,2.4-0.9c0.5-0.3,0.9-0.6,1.3-1c0.4-0.4,0.7-0.8,0.9-1.3c0.2-0.5,0.4-1,0.6-1.7c0.1-0.6,0.2-1.4,0.2-2.2
				c0-0.7,0-1.6,0.1-2.6c0-1,0-2.1,0.1-3.2c0-1.1,0-2.1,0.1-3.1c0-1,0.1-1.8,0.1-2.4l0.1-1.4h-2.7
				C469.4,330.7,469.5,332.6,469.5,334.4z"/>
			<path d="M506.1,333.5c0-0.9,0-1.8,0.1-2.7c0-0.8,0.1-1.5,0.2-2.1h-4.1c0.1,1.4,0.3,2.6,0.3,3.7c0,1.1,0,2,0,3c0,2.5,0,4.8,0,7.1
				c0,2.3-0.1,4.2-0.3,6h4.1c-0.1-1.2-0.2-2.5-0.2-4.1c0-1.6-0.1-3.4-0.1-5.6c0-0.7,0-1.6,0-2.5
				C506.1,335.4,506.1,334.5,506.1,333.5z"/>
			<path d="M527,331c-0.3,0.8-0.6,1.7-0.9,2.5c-0.3,0.9-0.7,1.7-1,2.6c-0.3,0.9-0.6,1.7-0.9,2.4c-0.3,0.7-0.5,1.3-0.7,1.8
				c-0.2,0.5-0.3,0.8-0.3,0.9l-1.1,2.7c-0.3-0.8-0.7-1.5-1-2.3c-0.3-0.7-0.7-1.5-1-2.3c-0.6-1.5-1.1-2.8-1.5-3.8
				c-0.4-1-0.7-1.9-1-2.6c-0.3-0.7-0.5-1.4-0.7-2c-0.2-0.6-0.4-1.3-0.6-2h-4.5c0.1,0.2,0.2,0.4,0.4,0.8c0.2,0.4,0.4,0.8,0.6,1.3
				c0.2,0.5,0.4,0.9,0.6,1.3c0.2,0.4,0.3,0.7,0.4,0.9c0.1,0.2,0.2,0.4,0.3,0.7c0.1,0.3,0.3,0.7,0.5,1.1c0.2,0.4,0.4,0.9,0.5,1.3
				c0.2,0.5,0.4,0.9,0.6,1.3c0.2,0.4,0.3,0.8,0.5,1.2c0.1,0.3,0.2,0.6,0.3,0.8c0.5,1.2,0.9,2.1,1.2,2.9c0.3,0.7,0.6,1.4,0.8,2
				c0.2,0.6,0.4,1.2,0.6,1.8c0.2,0.6,0.5,1.4,0.8,2.3h2.4c0.6-1.8,1.3-3.6,2-5.3c0.7-1.7,1.4-3.5,2.1-5.2c0.3-0.6,0.6-1.4,0.9-2.2
				c0.3-0.8,0.7-1.6,1.1-2.4c0.4-0.8,0.7-1.6,1.1-2.4c0.4-0.8,0.7-1.5,1-2.1h-2.7C527.5,329.4,527.3,330.1,527,331z"/>
			<path d="M543.3,346.7c-0.7,0-1.7,0-2.2,0c-0.5,0-1.2,0-1.4,0v-7.8c0.7,0,1.6,0,2.3,0c0.7,0,1.8,0,2.5,0c0.4,0,1.1,0,1.5,0.1
				c0.4,0,0.7,0,1.1,0.1v-2c-0.4,0-0.9,0.1-1.4,0.1c-0.6,0-1.5,0.1-2.1,0.1c-0.6,0-1.6,0-2.2,0c-0.5,0-1.3,0-1.7,0v-6.7
				c0.6,0,1.5,0,1.9,0c0.4,0,1.2,0,1.5,0c0.3,0,0.5,0,0.7,0c0.2,0,0.4,0,0.7,0l3.1,0.1v-2c-1,0-2.4,0.1-3.3,0.1
				c-0.9,0-2.2,0.1-2.8,0.1c-0.4,0-1.1,0-1.6,0c-0.5,0-0.9,0-1.4,0c-0.5,0-0.9,0-1.4-0.1c-0.4,0-0.8,0-1.2-0.1
				c0.1,0.7,0.1,1.6,0.1,2.6c0,1,0.1,1.9,0.1,2.9c0,0.9,0,1.8,0,2.6c0,0.8,0,1.3,0,1.6c0,0.3,0,0.8,0,1.3c0,0.6,0,1.2,0,1.8
				c0,0.6,0,1.2,0,1.8c0,0.6,0,1.1,0,1.5c0,0.6,0,1.2-0.1,1.8c0,0.6,0,1.2-0.1,1.8c1.8-0.1,3.9-0.2,5.7-0.2c1.8,0,4.4,0.1,6.1,0.2
				v-2c-0.6,0-1.3,0.1-2,0.1C545.1,346.6,544,346.6,543.3,346.7z"/>
			<path d="M567.4,345.6c-0.3-0.5-0.7-1-1.1-1.5c-0.4-0.6-0.9-1.2-1.5-2c-0.2-0.3-0.5-0.7-0.7-1.1c-0.3-0.4-0.5-0.8-0.7-1.1
				l-0.8-1.1c0.6-0.1,1.3-0.3,1.9-0.6c0.6-0.3,1.1-0.6,1.6-1.1c0.5-0.4,0.8-0.9,1.1-1.6c0.3-0.6,0.4-1.3,0.4-2.1
				c0-0.6-0.1-1.2-0.3-1.8c-0.2-0.6-0.6-1-1-1.5c-0.6-0.6-1.3-1-2-1.2c-0.7-0.2-1.6-0.3-2.5-0.3H554c0.1,0.9,0.1,1.7,0.1,2.3
				c0,0.6,0,1.1,0.1,1.7c0,0.5,0,1.1,0,1.7c0,0.6,0,1.4,0,2.3c0,0.9,0,1.7,0,2.4s0,1.3,0,1.9c0,0.6,0,1.1,0,1.6c0,0.5,0,1,0,1.6
				c0,0.6,0,1.2-0.1,1.9c0,0.7-0.1,1.5-0.1,2.4h3.9c0-0.2,0-0.5,0-1c0-0.5,0-1,0-1.6c0-0.6,0-1.1,0-1.6c0-0.5,0-0.9,0-1.1v-4.1h0.7
				c0.8,1.1,1.6,2.2,2.4,3.4c0.8,1.2,1.6,2.4,2.4,3.5c0.2,0.3,0.5,0.7,0.7,1.2c0.3,0.5,0.5,0.9,0.7,1.2h4.9
				c-0.5-0.6-0.9-1.1-1.2-1.5C568.1,346.5,567.7,346.1,567.4,345.6z M559.7,337.9c-0.4,0-0.7,0-1.1,0c-0.3,0-0.6,0-0.9-0.1v-7.4
				c0.2,0,0.5,0,1-0.1c0.4,0,0.8,0,1.1,0c0.5,0,0.9,0,1.4,0.1c0.5,0.1,0.9,0.3,1.3,0.6c0.5,0.4,0.8,0.8,1,1.3
				c0.2,0.5,0.2,1.1,0.2,1.7c0,0.5-0.1,0.9-0.2,1.4c-0.1,0.5-0.4,0.9-0.7,1.3c-0.3,0.4-0.7,0.7-1.2,0.9
				C561.1,337.8,560.5,337.9,559.7,337.9z"/>
			<path d="M585.5,340.9c-0.1-0.3-0.2-0.7-0.4-1c-0.2-0.4-0.4-0.7-0.7-1c-0.2-0.2-0.4-0.4-0.6-0.6c-0.2-0.2-0.5-0.3-0.8-0.5
				c-0.3-0.2-0.7-0.3-1.1-0.5c-0.4-0.2-0.9-0.3-1.4-0.6c-0.6-0.2-1.2-0.5-1.7-0.7c-0.5-0.2-0.9-0.4-1.3-0.7
				c-0.3-0.3-0.6-0.6-0.8-0.9c-0.2-0.4-0.3-0.8-0.3-1.3c0-0.8,0.3-1.6,0.9-2.2c0.6-0.6,1.4-0.9,2.5-0.9c0.9,0,1.7,0.2,2.4,0.6
				c0.7,0.4,1.1,1,1.3,1.9h0.4l0.9-2.7c-0.7-0.3-1.4-0.6-2.1-0.8c-0.7-0.2-1.6-0.3-2.6-0.3c-1.3,0-2.4,0.2-3.2,0.5
				c-0.9,0.4-1.5,0.8-2.1,1.4c-0.5,0.6-0.9,1.2-1.1,1.9c-0.2,0.7-0.3,1.3-0.3,2c0,0.6,0.1,1.1,0.2,1.6c0.1,0.5,0.3,0.9,0.6,1.3
				c0.3,0.4,0.7,0.8,1.1,1.1c0.5,0.3,1.1,0.7,1.7,1c0.4,0.2,0.9,0.4,1.5,0.6c0.6,0.2,1.1,0.4,1.5,0.6c0.1,0.1,0.3,0.2,0.6,0.3
				c0.3,0.1,0.5,0.3,0.8,0.6c0.3,0.3,0.5,0.6,0.7,1c0.2,0.4,0.3,0.9,0.3,1.4c0,0.5-0.1,1-0.3,1.4c-0.2,0.4-0.4,0.8-0.8,1.1
				c-0.3,0.3-0.7,0.6-1.2,0.7c-0.5,0.2-1,0.3-1.6,0.3c-0.4,0-0.8,0-1.2-0.1c-0.4-0.1-0.8-0.2-1.1-0.5c-0.4-0.2-0.7-0.6-1.1-1
				c-0.3-0.4-0.7-1-1-1.7h-0.4l-0.7,3.2c0.2,0.1,0.6,0.3,0.9,0.4c0.4,0.2,0.8,0.3,1.2,0.5c0.4,0.2,0.9,0.3,1.5,0.4
				c0.5,0.1,1.1,0.2,1.7,0.2c1.3,0,2.4-0.2,3.4-0.6c0.9-0.4,1.7-0.9,2.3-1.5c0.6-0.6,1-1.3,1.3-2c0.3-0.7,0.4-1.5,0.4-2.2
				c0-0.2,0-0.4-0.1-0.7C585.7,341.6,585.6,341.2,585.5,340.9z"/>
			<path d="M595.4,333.5c0-0.9,0.1-1.8,0.1-2.7c0-0.8,0.1-1.5,0.2-2.1h-4.1c0.2,1.4,0.2,2.6,0.3,3.7c0,1.1,0,2,0,3
				c0,2.5,0,4.8,0,7.1c0,2.3-0.1,4.2-0.3,6h4.1c-0.1-1.2-0.2-2.5-0.2-4.1c0-1.6-0.1-3.4-0.1-5.6c0-0.7,0-1.6,0-2.5
				C595.4,335.4,595.4,334.5,595.4,333.5z"/>
			<path d="M609.3,329c-0.5,0-1.2,0-1.8,0c-0.7,0-1.3,0-2,0c-0.7,0-1.3,0-2-0.1c-0.7,0-1.3-0.1-1.9-0.1v2.1c0.4,0,0.8-0.1,1.3-0.1
				c0.5,0,1-0.1,1.4-0.1c0.5,0,0.9,0,1.2,0c0.3,0,0.5,0,0.6,0h1.4c0,0.6,0,1.1,0,1.6c0,0.5,0,1,0,1.6l0,8c0,1.1,0,2.2-0.1,3.3
				c-0.1,1.1-0.1,2.2-0.2,3.3h4c0-0.4-0.1-0.9-0.1-1.4c0-0.6-0.1-1.4-0.1-2.5v-10.6c0-0.6,0-1.1,0-1.6c0-0.5,0-1.1,0-1.6
				c1,0,2,0,2.9,0c1,0,1.9,0.1,2.8,0.2v-2.1c-1.4,0.1-2.7,0.1-4,0.1C611.7,329,610.5,329,609.3,329z"/>
			<path d="M493.5,332.7c0.1,1.1,0.1,2.3,0.1,3.4v6.4c-0.3-0.2-0.6-0.4-0.8-0.6c-0.2-0.2-0.4-0.4-0.7-0.6l-3.4-3.3
				c-0.9-0.8-1.7-1.6-2.5-2.4c-0.8-0.8-1.5-1.5-2.2-2.3c-0.7-0.7-1.4-1.5-2.1-2.2c-0.7-0.7-1.4-1.5-2.1-2.2h-1.4c0,1.3,0,2.7,0,4
				c0,1.3,0,2.7,0,4v3.9c0,0.2,0,0.5,0,0.8c0,0.3,0,0.7,0,1.1c0,0.4,0,0.7,0,1.1c0,0.3,0,0.6,0,0.8l-0.2,4h2.5
				c-0.1-0.7-0.1-1.2-0.1-1.6c0-0.4-0.1-0.8-0.1-1.1c0-0.3,0-0.6,0-0.9c0-0.3,0-0.6,0-1.1c0-0.8,0-1.5,0-2.1c0-0.7,0-1.3,0-2.1
				c0-0.7,0-1.4,0-2.2c0-0.8,0-1.6,0-2.6c0.5,0.5,1.1,1,1.8,1.7c0.7,0.7,1.5,1.4,2.3,2.2c0.8,0.8,1.7,1.6,2.6,2.5
				c0.9,0.9,1.8,1.6,2.6,2.5c0.9,0.9,1.7,1.7,2.5,2.5c0.8,0.8,1.5,1.5,2.1,2.2h1.2c0-0.2,0-0.4,0-0.6c0-0.3,0-0.5,0-0.8
				c0-0.3,0-0.5,0-0.8c0-0.2,0-0.4,0-0.6c0-0.4,0-0.9,0-1.5c0-0.6,0-1.2,0-1.9c0-0.7,0-1.4,0-2.1c0-0.7,0-1.2,0-1.6c0-1.1,0-2,0-2.8
				c0-0.8,0-1.6,0-2.3c0-0.7,0.1-1.5,0.1-2.2c0-0.7,0.1-1.5,0.2-2.4h-2.5L493.5,332.7z"/>
			<path d="M627.7,348.5c0-0.6,0-1.2,0.1-1.9c0-0.7,0-1.4,0.1-2.2c0-0.7,0-1.4,0-2.1c0-0.7,0-1.2,0-1.6l-1.7-2.9
				c-0.4-0.6-0.8-1.3-1.2-2.1c-0.5-0.8-1-1.6-1.4-2.4c-0.5-0.8-1-1.6-1.5-2.4c-0.5-0.8-0.9-1.5-1.3-2.1h4.7c0.4,0.8,0.7,1.5,1.1,2.2
				c0.3,0.7,0.7,1.4,1.1,2.2c0.4,0.7,0.8,1.5,1.3,2.4c0.5,0.9,1,1.8,1.6,2.9c0.6-1.1,1.1-1.9,1.5-2.7c0.4-0.7,0.8-1.4,1.1-2.1
				c0.3-0.7,0.7-1.4,1-2.1c0.4-0.8,0.8-1.7,1.3-2.8h2.9c-0.1,0.2-0.3,0.5-0.6,1c-0.3,0.5-0.6,0.9-0.9,1.5c-0.3,0.5-0.6,1-0.9,1.4
				c-0.3,0.4-0.5,0.8-0.6,0.9c-0.7,1-1.3,2.1-1.8,3.1c-0.6,1.1-1.2,2.1-1.8,3.1c-0.1,0.2-0.2,0.3-0.3,0.5c-0.1,0.2-0.1,0.3-0.1,0.4
				v1.1c0,0.6,0,1.2,0,1.7c0,0.5,0,1,0,1.5c0,0.5,0,1.1,0.1,1.6c0,0.5,0,1.1,0.1,1.8H627.7z"/>
		</g>
	</g>
</g>
<g>
	<path d="M344.2,281.5l-1.4-4.1h31.8v-20.1c-12,1.5-18.7,2.1-25.1,2.3l-1.8-3.8c15.9-0.6,36.7-4.1,49.7-8.2l4.8,5
		c-6.9,1.7-11.9,2.7-22.3,4.2v20.7h21.4l4.6-4.9l6.8,6.9l-1.8,2.1h-30.9V315l-5.2,0.2v-33.6H344.2z"/>
	<path d="M441.2,252.9V246l5.1,0.2v6.7h15.5V246l5.2,0.2v6.7h12.4l3.8-4.5l6.7,5.9l-1.8,2h-21.2v5.5l-5.2,0.2v-5.7h-15.5v5.5
		l-5.1,0.2v-5.7h-20.6l-1.3-3.5H441.2z M421.9,296.1l-0.8-3.4h30.7v-4.8h-13.5v1.6l-4.8,0.2v-19.3h-12.1l-1.2-3.5h13.4v-6.4l4.8,0.2
		v6.2h12.8v-6.7l4.8,0.2v6.5h14v-6.1l4.6,0.3v5.8h5.4l3.3-4l6.3,5.4l-1.8,2.2h-13.2v11.1l-4.6,0.3v-2.5h-14v2.5l-4.8,0.2v-11.8
		h-12.8v14.1h37.4l3.5-4.2l6.1,5.4l-2,2.2h-26.3v4.8h22.2l3.4-3.9l6.9,5.2l-1.8,2.1H460c7.2,5.5,16.4,9.4,30,12.8
		c-2.7,2-3.2,2.5-4.8,4.4c-11.4-3.2-20.3-8.5-28.4-16.7v18.6l-5.1,0.2v-16.3c-7.7,7.6-18.4,13-30.5,15.4l-1.6-2.8
		c12.4-3.4,21.5-8.5,28.2-15.7H421.9z M469.7,276.2v-5.8h-14v5.8H469.7z"/>
	<path d="M528.1,246.7l5.4,0.2V268h20.1l4.5-5.3l7.1,6.6l-2.2,2.5H535c5.4,17.6,15.1,29.9,30.5,38.8c-2.8,1.7-3.5,2.3-5.5,4.5
		c-14.9-10.2-24.6-25.3-27.4-42.6c-1,19.1-14,36-33.2,43.6l-2.8-2.8c19.1-9.1,30.3-24,31.1-41.5h-28.8l-1.2-3.8h30.4V246.7z"/>
	<path d="M583.4,261.5c0,1,0,1.1-0.1,1.9H619c3.4-5.3,6.1-10.9,8.1-16.4l6.5,2.6c-2.5,3.8-6.3,8.8-10.7,13.8h11.6l4.1-3.5l4.8,7.4
		l-2.5,0.8c-1.2,1.5-2.4,3-3.6,4.5c-1.1,1.4-1.6,2-3.5,4.1l-3.2-1.5c2.2-3.8,3.1-5.4,4.3-8.2h-51.9c-0.8,4.4-1.9,7.1-4.3,10.7
		c-1.8-1.1-3.9-2.9-5.3-4.7c4.1-3.8,5.5-6.7,6.4-12.3L583.4,261.5z M606.1,290.2v-5.7l3.6,0.3c3.2-2.2,6.6-4.9,9.1-7.5h-31.7
		l-1.5-3.5h33.9l3-3l6.1,6.5l-3.4,1.2c-6.4,4.4-10.9,7.2-14.1,8.8v2.8h21l4-4.8l6.9,6.4l-1.8,2H611v16.5c0,3.8-1.3,4.9-5.6,4.9h-2.4
		c-0.2-1.3-0.6-1.8-1.7-2c-1-0.2-2.1-0.4-7.6-0.8v-3.7l1.6,0.2c5.9,0.4,7,0.5,8.8,0.5c1.5,0,1.9-0.5,1.9-2.1v-13.4H576l-1.5-3.7
		H606.1z M588.2,247.5c4.2,3.9,6.9,7.6,8.9,11.8c-2.2,1.8-3.3,2.3-5.2,2.9c-1.6-4.7-3.8-8.7-6.8-13L588.2,247.5z M605.1,246.4
		c4,4.2,6.1,7.2,8.5,12.2c-1.5,1.5-3,2.3-5.5,3.1c-1.4-5.6-3.1-9.4-6.1-13.4L605.1,246.4z"/>
</g>
</svg>
