<?xml version="1.0" encoding="utf-8"?>
<!-- Generator: Adobe Illustrator 26.0.3, SVG Export Plug-In . SVG Version: 6.00 Build 0)  -->
<svg version="1.1" id="レイヤー_1" xmlns="http://www.w3.org/2000/svg" xmlns:xlink="http://www.w3.org/1999/xlink" x="0px"
	 y="0px" width="595.28px" height="841.89px" viewBox="0 0 595.28 841.89" enable-background="new 0 0 595.28 841.89"
	 xml:space="preserve">
<g>
	<path fill="#FFFFFF" d="M139.065,330.238c-31.918,0-53.723,46.77-53.723,76.004c0,44.395,30.337,65.729,53.408,65.729h0.629
		c23.074,0,53.409-21.334,53.409-65.729C192.789,377.007,170.981,330.238,139.065,330.238z"/>
	<polygon fill="#A72C29" points="137.246,427.953 139.065,428.998 140.865,427.953 139.065,426.916 	"/>
	<rect x="137.729" y="437.418" fill="#A72C29" width="2.782" height="1.168"/>
	<path fill="#A72C29" d="M139.065,330.238c-31.918,0-53.723,46.77-53.723,76.004c0,44.395,30.337,65.729,53.408,65.729h0.629
		c23.074,0,53.409-21.334,53.409-65.729C192.789,377.007,170.981,330.238,139.065,330.238z M139.379,470.297h-0.624
		c-20.979,0-50.524-19.422-50.524-62.602c0-14.427,5.622-32.889,14.325-47.036c7.43-12.077,19.798-26.477,36.506-26.477
		c16.716,0,29.088,14.4,36.517,26.477c8.702,14.148,14.325,32.609,14.325,47.036C189.903,450.875,160.354,470.297,139.379,470.297z"
		/>
	<path fill="#A72C29" d="M174.169,361.531c-5.71-9.282-17.86-24.849-35.108-24.849c-17.235,0-29.389,15.567-35.096,24.849
		c-8.556,13.904-14.08,32.024-14.08,46.164c0,42.188,28.576,61.163,48.87,61.163h0.624c20.289,0,48.868-18.975,48.868-61.163
		C188.248,393.555,182.724,375.435,174.169,361.531z M147.402,424.463h0.002v6.529c0,0.381-0.311,0.695-0.696,0.695h-3.679v-0.006
		c-0.388,0-0.696-0.311-0.696-0.695c0-0.383,0.309-0.701,0.696-0.701h2.985v-1.131h-2.979c0,0-0.003,0-0.006,0
		c-0.306,0-0.56-0.193-0.659-0.467c0.113-0.225,0.184-0.473,0.184-0.734c0.127-0.119,0.289-0.189,0.475-0.189h2.985v-1.117h-2.969
		c-0.01,0-0.016,0.002-0.024,0.002c-0.386,0-0.698-0.311-0.698-0.695c0-0.389,0.312-0.697,0.698-0.697h2.993v-0.793
		c0-0.383,0.306-0.695,0.694-0.695C147.089,423.768,147.402,424.08,147.402,424.463z M131.261,421.551v-8.705
		c0-0.468,0.382-0.852,0.855-0.852h5.759v-2.314v-0.005c0-0.534,0.429-0.971,0.967-0.971c0.538,0,0.967,0.437,0.967,0.966h0.006
		v2.324h5.762c0.468,0,0.854,0.384,0.854,0.852v8.72h-0.01c0,0.008,0.004,0.008,0.004,0.008c0,0.469-0.382,0.848-0.848,0.848
		c-0.477,0-0.856-0.379-0.856-0.848c0,0,0,0,0-0.008l0,0v-7.868h-2.689v7.226c-0.007,0.532-0.439,0.962-0.971,0.962
		c-0.532,0-0.969-0.437-0.969-0.972c0-0.006,0.006-0.01,0.006-0.017v-7.2h-2.435v7.226h-0.006c-0.006,0.534-0.439,0.962-0.971,0.962
		c-0.534,0-0.969-0.437-0.969-0.972c0-0.029,0.005-0.058,0.005-0.086v-7.131h-2.755v7.886c0,0.471-0.392,0.848-0.858,0.848
		c-0.473,0-0.849-0.379-0.849-0.853C131.261,421.574,131.261,421.561,131.261,421.551z M141.496,429.012l-1.206,0.695l1.206,0.689
		l-0.008,0.006c0.18,0.105,0.307,0.303,0.307,0.523c0,0.342-0.279,0.619-0.615,0.619c-0.107,0-0.206-0.037-0.295-0.084l-0.008,0.004
		l-1.812-1.049l-1.814,1.049l-0.006-0.004c-0.089,0.047-0.19,0.084-0.298,0.084c-0.338,0-0.611-0.277-0.611-0.619
		c0-0.221,0.121-0.418,0.305-0.523l-0.008-0.006l1.205-0.689l-1.205-0.695c-0.36-0.209-0.603-0.607-0.603-1.059
		c0-0.443,0.248-0.832,0.611-1.041l-0.008-0.004l1.205-0.701l-1.205-0.686c-0.043-0.033-0.083-0.064-0.122-0.111
		c-0.243-0.236-0.243-0.623-0.004-0.863c0.202-0.199,0.501-0.223,0.74-0.084l0.006-0.006l1.814,1.041l1.812-1.041l0.008,0.002
		c0.089-0.051,0.188-0.078,0.295-0.078c0.336,0,0.615,0.273,0.615,0.609c0,0.229-0.125,0.42-0.298,0.527v0.004l-1.206,0.686
		l1.206,0.701v0.004c0.354,0.209,0.601,0.598,0.601,1.041c0,0.451-0.247,0.84-0.609,1.047L141.496,429.012z M130.725,424.463
		L130.725,424.463c0-0.383,0.312-0.695,0.698-0.695c0.386,0,0.692,0.312,0.692,0.695v0.793h2.993c0.387,0,0.698,0.309,0.698,0.697
		c0,0.385-0.311,0.695-0.698,0.695c-0.008,0-0.014-0.002-0.022-0.002h-2.971v1.117h2.984c0.19,0,0.357,0.07,0.473,0.189
		c0,0.264,0.069,0.516,0.182,0.744c-0.097,0.272-0.356,0.457-0.655,0.457c0,0-0.006,0-0.008,0h-2.977v1.131h2.984
		c0.386,0,0.698,0.318,0.698,0.701c0,0.385-0.312,0.695-0.698,0.695v0.006h-3.677c-0.386,0-0.698-0.314-0.698-0.695V424.463z
		 M131.397,433.025h15.379c0.432,0,0.771,0.346,0.771,0.777l0.748,8.072h-0.008v0.008c0,0.428-0.34,0.773-0.765,0.773
		c-0.43,0-0.773-0.346-0.773-0.773v-0.008l0,0l-0.748-7.301h-13.827l-0.787,7.287c0,0,0,0.006,0,0.01
		c0,0.432-0.351,0.772-0.777,0.772c-0.42,0-0.764-0.34-0.771-0.768h-0.006l0.787-8.072
		C130.62,433.371,130.968,433.025,131.397,433.025z M134.364,442.584c-0.386,0-0.694-0.322-0.694-0.709v-5.123
		c0-0.012-0.006-0.025-0.006-0.035c0-0.385,0.314-0.697,0.7-0.697c0.381,0,0.696,0.312,0.696,0.697v0.006h0.003v4.457h3.274v-1.193
		h-1.304c-0.388,0-0.702-0.314-0.702-0.701v-2.572c0-0.381,0.314-0.693,0.702-0.693h4.177c0.386,0,0.696,0.312,0.696,0.693v2.572
		c0,0.387-0.31,0.701-0.696,0.701h-1.478v1.193h3.442v-4.463c0-0.385,0.318-0.697,0.696-0.697c0.386,0,0.694,0.312,0.694,0.697
		h0.006v5.158c0,0.387-0.315,0.709-0.701,0.709h-4.138v2.076c0,0.391-0.314,0.703-0.7,0.703h-3.287
		c-0.008,0-0.014,0.002-0.018,0.002c-0.386,0-0.696-0.314-0.696-0.705c0-0.385,0.31-0.699,0.696-0.699c0.004,0,0.004,0,0.01,0l0,0
		h2.6v-1.377H134.364z M139.198,467.131c-22.83-0.228-44.08-21.031-39.628-49.577c0.004,0,0.008,0,0.008,0
		c0.004-0.08,0.073-0.143,0.158-0.143c0.072,0,0.123,0.06,0.135,0.128c0.008,0,0.008,0,0.008,0c0.67,2.61,3.188,11.298,8.034,16.076
		c0.027,0.027,0.075,0.049,0.114,0.049c0.087,0,0.155-0.068,0.155-0.154c0-0.018-0.014-0.035-0.014-0.057c0,0,0,0,0.006,0
		c-3.886-12.367-7.381-30.336,3.06-43.244c0.028-0.022,0.054-0.043,0.093-0.043c0.087,0,0.152,0.065,0.152,0.153
		c0,0.019-0.012,0.03-0.018,0.043l0.012,0.003c-4.047,10.058-2.218,19.574-1.577,22.19h0.006c0.016,0.072,0.065,0.127,0.143,0.127
		c0.079,0,0.146-0.07,0.154-0.147h0.008c0.299-4.29,1.539-25.305,19.608-38.601c0.024-0.012,0.044-0.03,0.067-0.03
		c0.086,0,0.156,0.073,0.156,0.155c0,0.041-0.018,0.071-0.038,0.095c-10.777,12.519-12.3,25.387-12.512,29.32h0.006l-0.006,0.002
		c0,0.089,0.075,0.155,0.157,0.155c0.067,0,0.11-0.04,0.132-0.101l0.006,0.004c0.89-2.836,3.772-10.225,10.552-14.659
		c0.028-0.017,0.052-0.032,0.083-0.032c0.091,0,0.152,0.067,0.152,0.155c0,0.028-0.012,0.057-0.028,0.083h0.002
		c-7.31,11.187-7.464,20.661-7.381,22.933h0.016c0,0,0,0,0,0.011c0,0.081,0.069,0.15,0.15,0.15c0.051,0,0.093-0.031,0.121-0.076
		l0.006,0.003c0.752-1.209,3.169-4.742,6.968-7.219v0.009c0.022-0.019,0.042-0.033,0.075-0.033c0.083,0,0.154,0.068,0.154,0.16
		c0,0.017-0.014,0.027-0.021,0.041l0.014,0.003c-9.896,21.426-3.284,47.612,10.551,54.137c6.917,3.264,25.292,0.875,35.559-17.092
		c0.028-0.047,0.082-0.074,0.143-0.074c0.085,0,0.146,0.08,0.13,0.205l0,0C169.095,456.936,154.544,467.131,139.198,467.131z
		 M177.191,434.818c-5.059,15.693-24.392,22.936-32.811,21.076v-0.008c-0.066-0.02-0.123-0.07-0.123-0.139
		c0-0.043,0.016-0.08,0.044-0.107c4.642-4.447,7.911-11.426,9.341-19.402c0.056-0.336,0.111-0.67,0.158-1.012
		c0.026-0.137,0.038-0.275,0.06-0.408c0.01-0.059,0.016-0.115,0.018-0.166c1.394-9.346,0.292-19.95-4.165-29.588l0.012-0.003
		c-0.006-0.014-0.018-0.025-0.018-0.041c0-0.092,0.067-0.16,0.152-0.16c0.03,0,0.05,0.015,0.078,0.033l0.001-0.009
		c3.794,2.477,6.214,6.01,6.966,7.219l0.004-0.003c0.028,0.045,0.066,0.076,0.121,0.076c0.087,0,0.158-0.069,0.158-0.15
		c0-0.011-0.006-0.011-0.006-0.011h0.016c0.081-2.272-0.071-11.746-7.381-22.933h0.002c-0.012-0.026-0.034-0.055-0.034-0.083
		c0-0.088,0.068-0.155,0.154-0.155c0.03,0,0.058,0.016,0.087,0.032c6.776,4.435,9.658,11.823,10.552,14.659l0.006-0.004
		c0.023,0.061,0.061,0.101,0.13,0.101c0.087,0,0.152-0.066,0.152-0.155l-0.004-0.002h0.004c-0.208-3.933-1.735-16.801-12.509-29.32
		l0,0c-0.016-0.024-0.03-0.054-0.03-0.095c0-0.082,0.068-0.155,0.158-0.155c0.022,0,0.04,0.018,0.056,0.03
		c18.075,13.296,19.315,34.311,19.614,38.601h0.012c0.006,0.076,0.065,0.147,0.15,0.147c0.078,0,0.13-0.055,0.145-0.127h0.008
		c0.637-2.616,2.468-12.132-1.586-22.19l0.021-0.003c-0.012-0.013-0.021-0.023-0.021-0.043c0-0.088,0.067-0.153,0.152-0.153
		c0.04,0,0.065,0.021,0.093,0.043c10.441,12.907,6.946,30.877,3.06,43.244c0.006,0,0.006,0,0.016,0
		c-0.01,0.021-0.026,0.039-0.026,0.057c0,0.086,0.071,0.154,0.158,0.154c0.038,0,0.079-0.021,0.113-0.049
		c4.848-4.777,7.366-13.465,8.032-16.076h0.002c0.016-0.068,0.072-0.128,0.144-0.128c0.087,0,0.143,0.062,0.158,0.143
		c0.002,0,0.002,0,0.002,0c0.951,6.09-0.078,11.965-1.547,17.098C177.219,434.703,177.207,434.76,177.191,434.818z"/>
	<g>
		<g>
			<path fill="#A72C29" d="M215.556,380.823c0.838-2,2.033-3.753,3.568-5.257c1.541-1.51,3.398-2.687,5.583-3.555
				c2.183-0.855,4.607-1.282,7.285-1.282c2.462,0,4.756,0.334,6.874,1.006c2.121,0.681,3.961,1.694,5.532,3.046
				c1.564,1.36,2.803,3.069,3.715,5.145c0.911,2.069,1.36,4.495,1.36,7.26c0,2.309-0.442,4.465-1.318,6.462
				c-0.874,1.996-2.087,3.75-3.644,5.233c-1.552,1.495-3.404,2.658-5.555,3.49c-2.152,0.819-4.519,1.242-7.105,1.242
				c-2.426,0-4.712-0.304-6.848-0.901c-2.132-0.596-3.996-1.569-5.582-2.908c-1.581-1.331-2.833-3.042-3.754-5.121
				c-0.923-2.076-1.392-4.556-1.392-7.446C214.275,384.961,214.701,382.825,215.556,380.823z M241.166,380.842
				c-0.485-1.58-1.171-2.923-2.049-4.031c-0.876-1.111-1.94-1.955-3.181-2.556c-1.246-0.602-2.604-0.902-4.085-0.902
				c-1.566,0-2.972,0.379-4.216,1.128c-1.243,0.756-2.298,1.772-3.161,3.064c-0.861,1.299-1.512,2.809-1.958,4.552
				c-0.446,1.732-0.669,3.585-0.669,5.554c0,2.456,0.255,4.536,0.778,6.226c0.528,1.691,1.237,3.049,2.124,4.079
				c0.897,1.03,1.924,1.777,3.093,2.237c1.169,0.461,2.395,0.697,3.685,0.697c1.389,0,2.712-0.295,3.97-0.878
				c1.263-0.588,2.361-1.475,3.299-2.677c0.934-1.196,1.691-2.718,2.257-4.566c0.571-1.846,0.855-4.027,0.855-6.549
				C241.908,384.222,241.664,382.431,241.166,380.842z"/>
			<path fill="#A72C29" d="M263.754,373.579c-1.421,0-2.572,0.423-3.462,1.251c-0.895,0.828-1.338,1.795-1.338,2.905
				c0,1.137,0.349,2.066,1.038,2.79c0.692,0.72,1.563,1.376,2.604,1.961c1.043,0.582,2.172,1.141,3.367,1.685
				c1.201,0.537,2.324,1.198,3.372,1.982c1.041,0.783,1.91,1.734,2.604,2.858c0.695,1.124,1.038,2.562,1.038,4.316
				c0,1.531-0.297,2.941-0.88,4.215c-0.581,1.279-1.41,2.371-2.49,3.273c-1.077,0.909-2.357,1.601-3.847,2.076
				c-1.489,0.477-3.163,0.721-5.007,0.721c-1.659,0-3.142-0.181-4.445-0.538c-1.313-0.349-2.303-0.781-2.986-1.31
				c0.314-1.071,0.577-2.058,0.793-2.948c0.209-0.896,0.401-1.868,0.552-2.911h0.872c0.128,0.676,0.355,1.315,0.7,1.915
				c0.332,0.6,0.767,1.128,1.289,1.59c0.52,0.461,1.149,0.826,1.89,1.081c0.74,0.265,1.566,0.399,2.489,0.399
				c1.847,0,3.207-0.466,4.082-1.392c0.877-0.918,1.312-2.021,1.312-3.315c0-1.17-0.337-2.124-1.018-2.855
				c-0.673-0.741-1.515-1.394-2.53-1.968c-1.01-0.566-2.121-1.12-3.325-1.658c-1.197-0.538-2.304-1.191-3.315-1.96
				c-1.015-0.766-1.864-1.712-2.539-2.836c-0.677-1.123-1.016-2.561-1.016-4.31c0-1.603,0.282-3.013,0.854-4.245
				c0.568-1.229,1.329-2.26,2.284-3.09c0.954-0.831,2.052-1.46,3.295-1.892c1.246-0.432,2.563-0.641,3.947-0.641
				c1.655,0,3.113,0.204,4.359,0.6c1.241,0.399,2.312,0.948,3.202,1.654c-0.277,0.711-0.513,1.4-0.715,2.053
				c-0.2,0.661-0.454,1.5-0.76,2.51h-0.689C268.35,374.904,266.487,373.579,263.754,373.579z"/>
			<path fill="#A72C29" d="M303.734,403.011c-0.736-0.067-1.438-0.097-2.094-0.097c-0.664,0-1.316,0-1.967,0
				c-0.643,0-1.296,0-1.96,0c-0.662,0-1.312,0.029-1.959,0.097c-0.486-1.51-0.996-3.041-1.52-4.619
				c-0.525-1.564-1.076-3.128-1.666-4.699c-0.982-0.031-1.963-0.057-2.95-0.068c-0.985-0.017-1.967-0.022-2.951-0.022
				c-0.8,0-1.597,0.006-2.397,0.022c-0.802,0.012-1.6,0.037-2.404,0.068c-0.612,1.571-1.179,3.135-1.705,4.699
				c-0.518,1.578-1.002,3.109-1.431,4.619c-0.369-0.067-0.728-0.097-1.079-0.097c-0.351,0-0.72,0-1.084,0c-0.371,0-0.741,0-1.112,0
				c-0.364,0-0.767,0.029-1.198,0.097c0.366-0.798,0.862-1.912,1.478-3.324c0.615-1.406,1.296-3.011,2.027-4.797
				c0.741-1.783,1.538-3.695,2.381-5.742c0.843-2.04,1.687-4.107,2.532-6.206c0.846-2.084,1.674-4.145,2.489-6.177
				c0.817-2.029,1.565-3.921,2.237-5.67c0.312,0.06,0.605,0.109,0.883,0.16c0.279,0.046,0.566,0.072,0.876,0.072
				c0.304,0,0.598-0.026,0.872-0.072c0.282-0.051,0.572-0.1,0.879-0.16c0.979,2.606,2.033,5.408,3.158,8.389
				c1.123,2.984,2.25,5.914,3.395,8.79c1.133,2.875,2.241,5.603,3.314,8.186C301.863,399.042,302.842,401.225,303.734,403.011z
				 M287.403,379.996c-0.799,1.844-1.551,3.669-2.256,5.465c-0.712,1.8-1.401,3.636-2.073,5.508h8.441
				c-0.685-1.872-1.353-3.708-2.005-5.508C288.839,383.666,288.145,381.84,287.403,379.996z"/>
			<path fill="#A72C29" d="M314.947,397.292c0.025,2.396,0.133,4.304,0.318,5.72c-0.518-0.067-1.09-0.097-1.703-0.097
				c-0.611,0-1.309,0-2.078,0c-0.77,0-1.459,0-2.074,0c-0.617,0-1.186,0.029-1.701,0.097c0.113-1.912,0.207-3.851,0.273-5.838
				c0.057-1.983,0.096-4.244,0.096-6.803v-6.273c0-2.552-0.039-4.821-0.096-6.799c-0.066-1.984-0.16-3.971-0.273-5.971
				c0.516,0.058,1.084,0.107,1.701,0.156c0.615,0.046,1.305,0.072,2.074,0.072c0.77,0,1.467-0.026,2.078-0.072
				c0.613-0.049,1.185-0.098,1.703-0.156c-0.152,0.919-0.254,2.3-0.301,4.146c-0.043,1.846-0.064,3.891-0.064,6.135v4.424
				c1.041-1.224,2.166-2.575,3.365-4.038c1.195-1.456,2.352-2.876,3.457-4.259c1.109-1.384,2.105-2.655,3.004-3.808
				c0.889-1.152,1.533-2.023,1.935-2.6c0.428,0.058,0.857,0.107,1.291,0.156c0.434,0.046,0.861,0.072,1.287,0.072
				c0.43,0,0.871-0.026,1.314-0.072c0.449-0.049,0.932-0.098,1.453-0.156c-0.521,0.522-1.322,1.362-2.391,2.528
				c-1.076,1.173-2.221,2.433-3.439,3.786c-1.219,1.351-2.377,2.668-3.484,3.943c-1.105,1.278-1.969,2.282-2.582,3.026
				c0.982,1.502,2.074,3.163,3.273,4.978c1.205,1.812,2.389,3.595,3.576,5.326c1.18,1.738,2.279,3.334,3.295,4.797
				c1.017,1.461,1.834,2.56,2.439,3.299c-0.885-0.067-1.684-0.097-2.391-0.097c-0.711,0-1.406,0-2.078,0c-0.676,0-1.348,0-2.008,0
				c-0.656,0-1.328,0.029-2.006,0.097c-1.57-2.336-3.103-4.714-4.611-7.132c-1.506-2.412-3.039-4.819-4.611-7.215h-0.09
				C314.9,392.015,314.914,394.89,314.947,397.292z"/>
			<path fill="#A72C29" d="M363.746,403.011c-0.738-0.067-1.432-0.097-2.088-0.097c-0.672,0-1.322,0-1.969,0
				c-0.652,0-1.289,0-1.963,0c-0.654,0-1.311,0.029-1.957,0.097c-0.49-1.51-1.008-3.041-1.52-4.619
				c-0.518-1.564-1.074-3.128-1.666-4.699c-0.982-0.031-1.961-0.057-2.951-0.068c-0.98-0.017-1.965-0.022-2.953-0.022
				c-0.799,0-1.602,0.006-2.396,0.022c-0.795,0.012-1.602,0.037-2.398,0.068c-0.613,1.571-1.182,3.135-1.705,4.699
				c-0.523,1.578-0.996,3.109-1.436,4.619c-0.361-0.067-0.728-0.097-1.078-0.097c-0.353,0-0.711,0-1.08,0c-0.371,0-0.742,0-1.107,0
				c-0.373,0-0.771,0.029-1.201,0.097c0.369-0.798,0.863-1.912,1.477-3.324c0.611-1.406,1.289-3.011,2.029-4.797
				c0.744-1.783,1.527-3.695,2.371-5.742c0.848-2.04,1.697-4.107,2.541-6.206c0.842-2.084,1.682-4.145,2.488-6.177
				c0.818-2.029,1.559-3.921,2.24-5.67c0.303,0.06,0.607,0.109,0.871,0.16c0.279,0.046,0.58,0.072,0.879,0.072
				c0.307,0,0.596-0.026,0.875-0.072c0.287-0.051,0.574-0.1,0.873-0.16c0.99,2.606,2.039,5.408,3.164,8.389
				c1.123,2.984,2.252,5.914,3.397,8.79c1.127,2.875,2.24,5.603,3.311,8.186C361.881,399.042,362.855,401.225,363.746,403.011z
				 M347.424,379.996c-0.803,1.844-1.553,3.669-2.266,5.465c-0.705,1.8-1.393,3.636-2.08,5.508h8.447
				c-0.678-1.872-1.342-3.708-2.004-5.508C348.852,383.666,348.156,381.84,347.424,379.996z"/>
			<path fill="#A72C29" d="M387.252,397.292c0.019,2.396,0.133,4.304,0.32,5.72c-0.525-0.067-1.098-0.097-1.713-0.097
				c-0.617,0-1.312,0-2.072,0c-0.77,0-1.459,0-2.076,0c-0.619,0-1.185,0.029-1.711,0.097c0.129-1.912,0.219-3.851,0.283-5.838
				c0.061-1.983,0.09-4.244,0.09-6.803v-6.273c0-2.552-0.029-4.821-0.09-6.799c-0.064-1.984-0.154-3.971-0.283-5.971
				c0.525,0.058,1.092,0.107,1.711,0.156c0.617,0.046,1.307,0.072,2.076,0.072c0.76,0,1.455-0.026,2.072-0.072
				c0.615-0.049,1.188-0.098,1.713-0.156c-0.158,0.919-0.262,2.3-0.303,4.146c-0.049,1.846-0.068,3.891-0.068,6.135v4.424
				c1.041-1.224,2.166-2.575,3.363-4.038c1.201-1.456,2.357-2.876,3.463-4.259c1.109-1.384,2.105-2.655,3-3.808
				c0.883-1.152,1.531-2.023,1.928-2.6c0.43,0.058,0.865,0.107,1.295,0.156c0.439,0.046,0.859,0.072,1.289,0.072
				c0.428,0,0.867-0.026,1.318-0.072c0.445-0.049,0.926-0.098,1.447-0.156c-0.521,0.522-1.32,1.362-2.393,2.528
				c-1.072,1.173-2.215,2.433-3.435,3.786c-1.217,1.351-2.377,2.668-3.479,3.943c-1.113,1.278-1.969,2.282-2.592,3.026
				c0.986,1.502,2.088,3.163,3.273,4.978c1.199,1.812,2.389,3.595,3.576,5.326c1.189,1.738,2.283,3.334,3.301,4.797
				c1.022,1.461,1.834,2.56,2.445,3.299c-0.895-0.067-1.699-0.097-2.399-0.097c-0.711,0-1.4,0-2.07,0c-0.684,0-1.354,0-2.018,0
				c-0.647,0-1.326,0.029-1.998,0.097c-1.57-2.336-3.109-4.714-4.613-7.132c-1.51-2.412-3.047-4.819-4.613-7.215h-0.09
				C387.201,392.015,387.211,394.89,387.252,397.292z"/>
			<path fill="#A72C29" d="M424.592,382.14c0.611-1.122,1.219-2.297,1.801-3.527c0.584-1.232,1.152-2.467,1.711-3.716
				c0.547-1.243,1.088-2.438,1.613-3.569c0.332,0.058,0.676,0.107,1.033,0.156c0.359,0.046,0.723,0.072,1.092,0.072
				c0.365,0,0.728-0.026,1.08-0.072c0.348-0.049,0.725-0.098,1.125-0.156c-0.52,0.854-1.172,1.988-1.953,3.387
				c-0.793,1.399-1.623,2.912-2.52,4.541c-0.896,1.629-1.797,3.301-2.697,5.008c-0.906,1.704-1.731,3.279-2.471,4.724
				c0,0.738-0.012,1.483-0.041,2.236c-0.033,0.759-0.057,1.516-0.057,2.284c0,1.566,0.031,3.123,0.074,4.657
				c0.053,1.541,0.184,3.155,0.393,4.846c-0.643-0.067-1.297-0.097-1.959-0.097c-0.66,0-1.316,0-1.963,0c-0.643,0-1.295,0-1.961,0
				c-0.656,0-1.299,0.029-1.957,0.097c0.062-1.416,0.17-2.859,0.324-4.338c0.16-1.477,0.238-2.95,0.238-4.428
				c0-0.701-0.016-1.419-0.033-2.145c-0.012-0.718-0.033-1.439-0.064-2.143c-0.773-1.538-1.66-3.253-2.652-5.14
				c-1-1.896-1.969-3.737-2.912-5.518c-0.935-1.78-1.797-3.395-2.58-4.846c-0.783-1.438-1.361-2.484-1.727-3.128
				c0.705,0.058,1.4,0.107,2.076,0.156c0.676,0.046,1.359,0.072,2.074,0.072c0.705,0,1.393-0.026,2.051-0.072
				c0.67-0.049,1.346-0.098,2.051-0.156c0.523,1.131,1.115,2.395,1.779,3.774c0.664,1.389,1.309,2.74,1.953,4.065
				c0.652,1.32,1.25,2.516,1.799,3.591c0.559,1.082,0.998,1.879,1.344,2.406h0.094C423.361,384.266,423.978,383.26,424.592,382.14z"
				/>
			<path fill="#A72C29" d="M435.393,380.823c0.844-2,2.037-3.753,3.57-5.257c1.543-1.51,3.402-2.687,5.586-3.555
				c2.189-0.855,4.611-1.282,7.289-1.282c2.465,0,4.75,0.334,6.865,1.006c2.133,0.681,3.977,1.694,5.547,3.046
				c1.553,1.36,2.797,3.069,3.709,5.145c0.91,2.069,1.361,4.495,1.361,7.26c0,2.309-0.445,4.465-1.314,6.462
				c-0.883,1.996-2.092,3.75-3.639,5.233c-1.553,1.495-3.41,2.658-5.565,3.49c-2.16,0.819-4.523,1.242-7.101,1.242
				c-2.434,0-4.721-0.304-6.855-0.901c-2.125-0.596-3.988-1.569-5.57-2.908c-1.588-1.331-2.842-3.042-3.768-5.121
				c-0.922-2.076-1.387-4.556-1.387-7.446C434.121,384.961,434.545,382.825,435.393,380.823z M461.02,380.842
				c-0.496-1.58-1.184-2.923-2.053-4.031c-0.881-1.111-1.938-1.955-3.186-2.556c-1.24-0.602-2.607-0.902-4.08-0.902
				c-1.572,0-2.977,0.379-4.217,1.128c-1.252,0.756-2.303,1.772-3.166,3.064c-0.861,1.299-1.516,2.809-1.961,4.552
				c-0.441,1.732-0.67,3.585-0.67,5.554c0,2.456,0.264,4.536,0.787,6.226c0.529,1.691,1.236,3.049,2.123,4.079
				c0.885,1.03,1.918,1.777,3.084,2.237c1.176,0.461,2.4,0.697,3.688,0.697c1.391,0,2.709-0.295,3.973-0.878
				c1.262-0.588,2.359-1.475,3.301-2.677c0.936-1.196,1.684-2.718,2.258-4.566c0.574-1.846,0.848-4.027,0.848-6.549
				C461.748,384.222,461.5,382.431,461.02,380.842z"/>
			<path fill="#A72C29" d="M475.131,377.298c-0.065-1.984-0.154-3.971-0.281-5.971c0.529,0.058,1.086,0.107,1.709,0.156
				c0.615,0.046,1.305,0.072,2.082,0.072c0.762,0,1.453-0.026,2.07-0.072c0.613-0.049,1.182-0.098,1.705-0.156
				c-0.129,2-0.211,3.986-0.277,5.971c-0.061,1.978-0.092,4.247-0.092,6.799v6.273c0,2.559,0.031,4.82,0.092,6.803
				c0.066,1.987,0.148,3.926,0.277,5.838c-0.523-0.067-1.092-0.097-1.705-0.097c-0.617,0-1.309,0-2.07,0c-0.777,0-1.467,0-2.082,0
				c-0.623,0-1.18,0.029-1.709,0.097c0.127-1.912,0.217-3.851,0.281-5.838c0.062-1.983,0.096-4.244,0.096-6.803v-6.273
				C475.227,381.545,475.193,379.276,475.131,377.298z"/>
			<path fill="#A72C29" d="M496.322,397.292c0.025,2.396,0.139,4.304,0.322,5.72c-0.52-0.067-1.09-0.097-1.717-0.097
				c-0.605,0-1.301,0-2.066,0c-0.773,0-1.459,0-2.082,0c-0.607,0-1.178,0.029-1.703,0.097c0.125-1.912,0.209-3.851,0.279-5.838
				c0.062-1.983,0.084-4.244,0.084-6.803v-6.273c0-2.552-0.021-4.821-0.084-6.799c-0.07-1.984-0.154-3.971-0.279-5.971
				c0.525,0.058,1.096,0.107,1.703,0.156c0.623,0.046,1.309,0.072,2.082,0.072c0.766,0,1.461-0.026,2.066-0.072
				c0.627-0.049,1.197-0.098,1.717-0.156c-0.162,0.919-0.248,2.3-0.297,4.146c-0.047,1.846-0.07,3.891-0.07,6.135v4.424
				c1.039-1.224,2.166-2.575,3.363-4.038c1.199-1.456,2.352-2.876,3.461-4.259c1.109-1.384,2.107-2.655,3-3.808
				c0.887-1.152,1.529-2.023,1.934-2.6c0.432,0.058,0.861,0.107,1.285,0.156c0.441,0.046,0.869,0.072,1.295,0.072
				c0.438,0,0.863-0.026,1.316-0.072c0.447-0.049,0.934-0.098,1.461-0.156c-0.527,0.522-1.332,1.362-2.4,2.528
				c-1.082,1.173-2.227,2.433-3.441,3.786c-1.217,1.351-2.375,2.668-3.48,3.943c-1.107,1.278-1.971,2.282-2.584,3.026
				c0.977,1.502,2.074,3.163,3.273,4.978c1.197,1.812,2.389,3.595,3.576,5.326c1.182,1.738,2.279,3.334,3.297,4.797
				c1.014,1.461,1.832,2.56,2.445,3.299c-0.894-0.067-1.688-0.097-2.402-0.097c-0.707,0-1.396,0-2.074,0c-0.68,0-1.348,0-2.014,0
				c-0.648,0-1.326,0.029-1.992,0.097c-1.568-2.336-3.111-4.714-4.619-7.132c-1.512-2.412-3.047-4.819-4.611-7.215h-0.088
				C496.277,392.015,496.289,394.89,496.322,397.292z"/>
			<path fill="#A72C29" d="M526.068,402.985c-1.707-0.413-3.189-1.11-4.457-2.071c-1.264-0.972-2.248-2.217-2.971-3.74
				c-0.721-1.522-1.084-3.374-1.084-5.559c0-1.232,0.008-2.328,0.018-3.297c0.016-0.968,0.027-1.867,0.027-2.697
				c0-0.829,0.008-1.629,0.018-2.398c0.02-0.769,0.023-1.567,0.023-2.4c0-2.493-0.008-4.498-0.041-6.043
				c-0.037-1.536-0.084-2.688-0.141-3.452c0.625,0.058,1.24,0.107,1.889,0.156c0.648,0.046,1.279,0.072,1.894,0.072
				c0.609,0,1.248-0.026,1.893-0.072c0.645-0.049,1.279-0.098,1.891-0.156c-0.303,2.977-0.492,5.752-0.551,8.318
				c-0.061,2.571-0.1,5.173-0.1,7.822c0,2.798,0.209,5.053,0.605,6.777c0.397,1.732,0.996,3.054,1.768,3.994
				c0.793,0.939,1.748,1.554,2.894,1.861c1.127,0.312,2.455,0.464,3.961,0.464c1.852,0,3.285-0.464,4.336-1.379
				c1.041-0.928,1.836-2.16,2.373-3.695c0.539-1.538,0.865-3.3,0.992-5.284c0.129-1.982,0.193-4.047,0.193-6.198
				c0-2.121-0.039-4.238-0.104-6.343c-0.065-2.106-0.15-4.221-0.271-6.338c0.424,0.058,0.846,0.107,1.246,0.156
				c0.396,0.046,0.766,0.072,1.107,0.072c0.402,0,0.783-0.026,1.148-0.072c0.371-0.049,0.758-0.098,1.156-0.156
				c-0.059,0.671-0.121,1.585-0.186,2.718c-0.059,1.134-0.119,2.449-0.188,3.943c-0.062,1.491-0.107,3.136-0.158,4.935
				c-0.043,1.795-0.065,3.697-0.065,5.696c0,5.356-1.15,9.184-3.461,11.505c-2.309,2.322-5.691,3.488-10.145,3.488
				C529.607,403.613,527.773,403.4,526.068,402.985z"/>
		</g>
		<g>
			<path fill="#A72C29" d="M225.543,441.115c-1.324-0.33-2.473-0.865-3.45-1.611c-0.977-0.75-1.748-1.717-2.302-2.897
				c-0.561-1.178-0.842-2.613-0.842-4.309c0-0.953,0.009-1.803,0.016-2.551c0.021-0.748,0.021-1.449,0.021-2.09
				c0-0.645,0.006-1.262,0.018-1.861c0.013-0.594,0.019-1.217,0.019-1.852c0-1.932-0.014-3.495-0.037-4.682
				c-0.025-1.193-0.062-2.084-0.111-2.685c0.476,0.049,0.97,0.084,1.468,0.123c0.496,0.037,0.988,0.06,1.464,0.06
				c0.476,0,0.97-0.022,1.466-0.06c0.499-0.039,0.993-0.074,1.464-0.123c-0.24,2.306-0.378,4.46-0.428,6.455
				c-0.043,1.984-0.076,4.01-0.076,6.055c0,2.162,0.157,3.912,0.47,5.25c0.303,1.332,0.769,2.365,1.377,3.09
				c0.607,0.727,1.347,1.211,2.239,1.447c0.876,0.246,1.904,0.363,3.067,0.363c1.428,0,2.555-0.363,3.356-1.076
				c0.817-0.711,1.431-1.666,1.845-2.861c0.414-1.189,0.667-2.555,0.77-4.088c0.087-1.535,0.138-3.137,0.138-4.807
				c0-1.648-0.027-3.277-0.07-4.917c-0.045-1.63-0.118-3.268-0.213-4.911c0.331,0.049,0.653,0.084,0.962,0.123
				c0.31,0.037,0.602,0.06,0.862,0.06c0.309,0,0.602-0.022,0.891-0.06c0.288-0.039,0.577-0.074,0.891-0.123
				c-0.043,0.523-0.096,1.229-0.135,2.107c-0.054,0.883-0.105,1.902-0.143,3.058c-0.056,1.161-0.098,2.428-0.132,3.825
				c-0.034,1.395-0.05,2.857-0.05,4.408c0,4.145-0.9,7.123-2.683,8.924c-1.785,1.793-4.405,2.693-7.867,2.693
				C228.292,441.594,226.863,441.432,225.543,441.115z"/>
			<path fill="#A72C29" d="M259.511,419.547c-0.051-1.122-0.083-2.116-0.105-2.969c0.661,0.118,1.201,0.183,1.605,0.183
				c0.408,0,0.946-0.064,1.61-0.183c2.597,2.884,5.162,5.716,7.701,8.507c2.536,2.785,5.143,5.621,7.81,8.508v-3.113v-3.467
				c0-1.168-0.006-2.315-0.014-3.447c-0.018-1.133-0.025-2.177-0.048-3.131c-0.006-0.957-0.027-1.772-0.067-2.455
				c-0.033-0.698-0.078-1.163-0.121-1.401c0.664,0.118,1.202,0.183,1.603,0.183c0.407,0,0.944-0.064,1.608-0.183
				c-0.116,2.174-0.219,4.133-0.284,5.878c-0.068,1.752-0.128,3.4-0.178,4.955c-0.045,1.545-0.078,3.072-0.087,4.59
				c-0.013,1.508-0.016,3.123-0.016,4.842v4.289c-0.478-0.055-0.964-0.078-1.469-0.078c-0.526,0-0.989,0.023-1.396,0.078
				c-4.907-5.719-10.11-11.48-15.618-17.264c-0.022,0.695-0.039,1.387-0.051,2.076c-0.012,0.688-0.022,1.387-0.022,2.104v4.146
				c0,1.428,0.01,2.646,0.022,3.648c0.012,1,0.028,1.844,0.051,2.531c0.021,0.69,0.05,1.26,0.075,1.701
				c0.019,0.441,0.05,0.787,0.075,1.057c-0.294-0.055-0.577-0.078-0.858-0.078c-0.287,0-0.568,0-0.831,0
				c-0.549,0-1.093,0.023-1.638,0.078c0.05-0.199,0.11-0.871,0.176-2.045c0.073-1.164,0.154-2.584,0.235-4.268
				c0.088-1.68,0.152-3.498,0.213-5.471c0.061-1.957,0.086-3.848,0.086-5.66C259.578,422.047,259.556,420.668,259.511,419.547z"/>
			<path fill="#A72C29" d="M300.654,421.21c-0.049-1.539-0.125-3.084-0.213-4.631c0.398,0.049,0.838,0.084,1.314,0.123
				c0.479,0.037,1.01,0.06,1.615,0.06c0.59,0,1.129-0.022,1.598-0.06c0.486-0.039,0.922-0.074,1.332-0.123
				c-0.098,1.547-0.168,3.092-0.219,4.631c-0.045,1.537-0.064,3.294-0.064,5.269v4.859c0,1.975,0.02,3.734,0.064,5.27
				c0.051,1.535,0.121,3.045,0.219,4.525c-0.41-0.055-0.846-0.078-1.332-0.078c-0.469,0-1.008,0-1.598,0c-0.605,0-1.137,0-1.615,0
				c-0.477,0-0.916,0.023-1.314,0.078c0.088-1.48,0.164-2.99,0.213-4.525c0.051-1.535,0.064-3.295,0.064-5.27v-4.859
				C300.719,424.504,300.705,422.746,300.654,421.21z"/>
			<path fill="#A72C29" d="M339.705,425.387c1.166-3.057,2.223-5.998,3.145-8.808c0.598,0.118,1.119,0.183,1.576,0.183
				c0.453,0,0.977-0.064,1.566-0.183c-0.59,1.403-1.311,3.094-2.145,5.075c-0.828,1.977-1.701,4.075-2.604,6.293
				c-0.91,2.213-1.799,4.463-2.684,6.75c-0.883,2.285-1.67,4.428-2.357,6.436c-0.477-0.055-1.002-0.078-1.576-0.078
				c-0.568,0-1.088,0.023-1.572,0.078c-0.355-0.955-0.791-2.111-1.299-3.465c-0.514-1.365-1.053-2.809-1.646-4.328
				c-0.582-1.525-1.199-3.084-1.842-4.684c-0.643-1.588-1.26-3.139-1.855-4.631c-0.6-1.482-1.158-2.874-1.674-4.161
				c-0.533-1.281-0.986-2.379-1.363-3.286c0.551,0.049,1.088,0.084,1.621,0.123c0.535,0.037,1.072,0.06,1.592,0.06
				c0.529,0,1.051-0.022,1.566-0.06c0.533-0.039,1.053-0.074,1.578-0.123c0.408,1.336,0.865,2.739,1.377,4.217
				c0.521,1.482,1.037,2.99,1.59,4.521c0.557,1.533,1.115,3.082,1.701,4.631c0.578,1.551,1.141,3.07,1.688,4.568
				C337.328,431.498,338.533,428.451,339.705,425.387z"/>
			<path fill="#A72C29" d="M362.938,421.21c-0.049-1.539-0.107-3.084-0.191-4.631c1.07,0.026,2.133,0.064,3.174,0.112
				c1.053,0.047,2.111,0.07,3.188,0.07c1.756,0,3.322-0.022,4.693-0.06c1.377-0.039,2.295-0.074,2.773-0.123
				c-0.096,0.382-0.141,0.877-0.141,1.505c0,0.372,0.008,0.674,0.033,0.895c0.018,0.209,0.059,0.447,0.107,0.712
				c-0.691-0.048-1.451-0.094-2.271-0.143c-0.82-0.052-1.617-0.097-2.393-0.142c-0.768-0.056-1.475-0.088-2.09-0.105
				c-0.619-0.027-1.064-0.037-1.322-0.037c-0.103,1.311-0.148,2.609-0.158,3.891c-0.016,1.289-0.02,2.588-0.02,3.898
				c1.541-0.023,2.951-0.064,4.205-0.107c1.25-0.051,2.553-0.111,3.908-0.18c-0.078,0.402-0.117,0.711-0.15,0.928
				c-0.023,0.213-0.031,0.438-0.031,0.676c0,0.188,0.017,0.391,0.064,0.59c0.02,0.203,0.066,0.498,0.117,0.883
				c-2.715-0.219-5.424-0.326-8.113-0.326c0,0.76-0.012,1.525-0.018,2.285c-0.012,0.764-0.012,1.523-0.012,2.287
				c0,1.545,0.029,3.039,0.096,4.471c1.367,0,2.721-0.035,4.074-0.113c1.361-0.07,2.725-0.186,4.113-0.361
				c-0.049,0.277-0.09,0.506-0.107,0.727c-0.025,0.211-0.033,0.51-0.033,0.889c0,0.379,0.008,0.678,0.033,0.898
				c0.018,0.209,0.059,0.387,0.107,0.535c-0.646-0.033-1.435-0.043-2.379-0.055c-0.947-0.018-2.232-0.023-3.877-0.023
				c-1.453,0-2.635,0-3.533,0c-0.889,0-1.596,0-2.133,0c-0.529,0-0.932,0.006-1.213,0.023c-0.275,0.012-0.502,0.021-0.693,0.055
				c0.084-1.48,0.143-2.99,0.191-4.525c0.037-1.535,0.062-3.295,0.062-5.27v-4.859C363,424.504,362.975,422.746,362.938,421.21z"/>
			<path fill="#A72C29" d="M401.828,429.871v1.467c0,1.975,0.018,3.734,0.066,5.27c0.043,1.535,0.115,3.045,0.211,4.525
				c-0.41-0.055-0.838-0.078-1.32-0.078c-0.48,0-1.008,0-1.609,0c-0.596,0-1.131,0-1.605,0c-0.471,0-0.912,0.023-1.314,0.078
				c0.082-1.48,0.156-2.99,0.209-4.525c0.041-1.535,0.072-3.295,0.072-5.27v-4.859c0-1.975-0.031-3.732-0.072-5.269
				c-0.053-1.539-0.127-3.084-0.209-4.631c0.402,0.049,0.844,0.084,1.314,0.123c0.475,0.037,1.01,0.06,1.605,0.06
				c0.641,0,1.381-0.033,2.203-0.099c0.824-0.056,1.836-0.084,3.057-0.084c0.895,0,1.666,0.026,2.32,0.072
				c0.639,0.046,1.201,0.118,1.656,0.217c0.467,0.093,0.871,0.219,1.223,0.367c0.332,0.162,0.662,0.344,0.98,0.561
				c0.707,0.522,1.275,1.175,1.691,1.946c0.418,0.773,0.629,1.694,0.629,2.768c0,1.744-0.48,3.154-1.432,4.256
				c-0.953,1.094-2.332,1.863-4.109,2.322c1.145,2.022,2.367,4.039,3.684,6.051c1.305,2.021,2.615,4.018,3.934,5.994
				c-0.553-0.055-1.09-0.078-1.607-0.078c-0.529,0-1.062,0-1.607,0c-0.549,0-1.092,0-1.633,0c-0.529,0-1.076,0.023-1.625,0.078
				l-6.397-11.262H401.828z M407.15,420.795c-0.219-0.62-0.547-1.089-0.986-1.417c-0.445-0.32-1.012-0.52-1.717-0.621
				c-0.693-0.095-1.535-0.14-2.52-0.14c-0.064,3.239-0.1,6.482-0.1,9.714c0.135,0.027,0.277,0.043,0.404,0.057
				c0.131,0.012,0.256,0.021,0.373,0.021c1.58,0,2.787-0.42,3.611-1.273c0.832-0.846,1.254-2.127,1.254-3.84
				C407.471,422.248,407.361,421.414,407.15,420.795z"/>
			<path fill="#A72C29" d="M438.861,418.327c-1.092,0-1.99,0.326-2.678,0.974c-0.69,0.636-1.035,1.388-1.035,2.249
				c0,0.884,0.275,1.599,0.799,2.156c0.547,0.568,1.211,1.07,2.017,1.518c0.818,0.455,1.69,0.893,2.617,1.309
				c0.926,0.418,1.795,0.924,2.615,1.537c0.805,0.607,1.482,1.342,2.008,2.211c0.537,0.871,0.814,1.99,0.814,3.344
				c0,1.193-0.232,2.281-0.691,3.268c-0.445,0.994-1.094,1.838-1.924,2.543c-0.834,0.697-1.836,1.23-2.988,1.605
				c-1.156,0.369-2.451,0.555-3.877,0.555c-1.283,0-2.434-0.139-3.447-0.404c-1.016-0.285-1.775-0.613-2.307-1.025
				c0.24-0.828,0.449-1.598,0.609-2.287c0.164-0.695,0.315-1.44,0.426-2.252h0.69c0.088,0.529,0.27,1.021,0.529,1.488
				c0.271,0.453,0.596,0.869,1.004,1.23c0.404,0.353,0.895,0.637,1.467,0.844c0.57,0.197,1.205,0.303,1.922,0.303
				c1.43,0,2.475-0.365,3.166-1.078c0.68-0.715,1.02-1.568,1.02-2.568c0-0.906-0.266-1.652-0.791-2.221
				c-0.525-0.566-1.172-1.078-1.965-1.514c-0.773-0.447-1.643-0.873-2.561-1.291c-0.938-0.418-1.795-0.924-2.586-1.52
				c-0.787-0.59-1.434-1.32-1.963-2.193c-0.518-0.869-0.787-1.988-0.787-3.344c0-1.238,0.225-2.333,0.668-3.291
				c0.434-0.946,1.025-1.743,1.766-2.387c0.744-0.652,1.59-1.141,2.549-1.465c0.973-0.333,1.992-0.505,3.064-0.505
				c1.281,0,2.408,0.155,3.369,0.465c0.965,0.308,1.793,0.744,2.484,1.287c-0.211,0.553-0.4,1.078-0.555,1.597
				c-0.154,0.508-0.353,1.153-0.588,1.945h-0.525C442.426,419.35,440.986,418.327,438.861,418.327z"/>
			<path fill="#A72C29" d="M465.58,421.21c-0.051-1.539-0.127-3.084-0.217-4.631c0.408,0.049,0.846,0.084,1.326,0.123
				c0.475,0.037,1.008,0.06,1.604,0.06c0.598,0,1.133-0.022,1.613-0.06c0.475-0.039,0.908-0.074,1.32-0.123
				c-0.094,1.547-0.168,3.092-0.227,4.631c-0.037,1.537-0.062,3.294-0.062,5.269v4.859c0,1.975,0.025,3.734,0.062,5.27
				c0.059,1.535,0.133,3.045,0.227,4.525c-0.412-0.055-0.846-0.078-1.32-0.078c-0.48,0-1.016,0-1.613,0c-0.596,0-1.129,0-1.604,0
				c-0.48,0-0.918,0.023-1.326,0.078c0.09-1.48,0.166-2.99,0.217-4.525c0.043-1.535,0.074-3.295,0.074-5.27v-4.859
				C465.654,424.504,465.623,422.746,465.58,421.21z"/>
			<path fill="#A72C29" d="M495.91,420.511c-0.012-0.575-0.057-0.987-0.086-1.248c-0.371,0-0.809,0.01-1.326,0.037
				c-0.533,0.018-1.09,0.047-1.688,0.078c-0.596,0.041-1.207,0.092-1.816,0.146c-0.629,0.069-1.195,0.131-1.721,0.2
				c0.049-0.262,0.088-0.525,0.125-0.788c0.029-0.259,0.061-0.518,0.061-0.786c0-0.267-0.031-0.518-0.061-0.784
				c-0.037-0.264-0.076-0.523-0.125-0.787c0.816,0.026,1.541,0.049,2.199,0.072c0.654,0.021,1.32,0.041,2.002,0.051
				c0.678,0.019,1.416,0.026,2.209,0.037c0.801,0.015,1.766,0.022,2.881,0.022c1.127,0,2.08-0.008,2.885-0.022
				c0.793-0.011,1.523-0.019,2.188-0.037c0.678-0.01,1.32-0.029,1.947-0.051c0.633-0.023,1.318-0.046,2.059-0.072
				c-0.043,0.265-0.088,0.523-0.125,0.787c-0.031,0.267-0.057,0.517-0.057,0.784c0,0.269,0.025,0.527,0.057,0.786
				c0.037,0.263,0.082,0.526,0.125,0.788c-0.477-0.069-1.01-0.131-1.609-0.2c-0.598-0.054-1.182-0.104-1.769-0.146
				c-0.582-0.031-1.139-0.06-1.66-0.078c-0.519-0.027-0.961-0.037-1.318-0.037c-0.027,0.115-0.043,0.284-0.057,0.495
				c-0.006,0.215-0.023,0.468-0.023,0.753v1.897v8.93c0,1.975,0.027,3.734,0.08,5.27c0.039,1.535,0.113,3.045,0.205,4.525
				c-0.4-0.055-0.846-0.078-1.316-0.078c-0.479,0-1.016,0-1.609,0c-0.59,0-1.133,0-1.598,0c-0.482,0-0.924,0.023-1.33,0.078
				c0.092-1.48,0.168-2.99,0.213-4.525c0.051-1.535,0.074-3.295,0.074-5.27v-8.93C495.924,421.714,495.912,421.086,495.91,420.511z"
				/>
			<path fill="#A72C29" d="M534.697,424.963c0.48-0.873,0.936-1.779,1.395-2.736c0.449-0.956,0.894-1.911,1.32-2.879
				c0.428-0.966,0.846-1.892,1.256-2.769c0.256,0.049,0.521,0.084,0.797,0.123c0.27,0.037,0.551,0.06,0.842,0.06
				c0.291,0,0.561-0.022,0.838-0.06c0.277-0.039,0.566-0.074,0.881-0.123c-0.404,0.667-0.922,1.541-1.521,2.625
				c-0.607,1.09-1.26,2.257-1.953,3.519c-0.688,1.262-1.383,2.562-2.09,3.883c-0.697,1.324-1.336,2.541-1.906,3.658
				c0,0.578-0.016,1.154-0.045,1.738c-0.014,0.582-0.033,1.172-0.033,1.76c0,1.219,0.02,2.418,0.053,3.619
				c0.041,1.186,0.143,2.438,0.307,3.752c-0.494-0.055-1.002-0.078-1.519-0.078c-0.508,0-1.02,0-1.516,0s-1.004,0-1.514,0
				c-0.516,0-1.029,0.023-1.523,0.078c0.047-1.098,0.131-2.221,0.252-3.365c0.123-1.141,0.174-2.285,0.174-3.43
				c0-0.549-0.008-1.1-0.016-1.66c-0.01-0.559-0.027-1.113-0.06-1.654c-0.586-1.195-1.269-2.527-2.047-3.994
				c-0.775-1.461-1.529-2.891-2.248-4.268c-0.734-1.376-1.396-2.63-2.004-3.754c-0.613-1.124-1.057-1.921-1.338-2.429
				c0.553,0.049,1.084,0.084,1.602,0.123c0.523,0.037,1.065,0.06,1.615,0.06c0.551,0,1.082-0.022,1.586-0.06
				c0.516-0.039,1.037-0.074,1.592-0.123c0.4,0.877,0.861,1.857,1.377,2.933c0.514,1.067,1.012,2.119,1.516,3.141
				c0.5,1.029,0.961,1.955,1.395,2.787c0.432,0.838,0.775,1.455,1.033,1.863h0.078C533.744,426.607,534.217,425.832,534.697,424.963
				z"/>
		</g>
	</g>
</g>
<g>
</g>
<g>
</g>
<g>
</g>
<g>
</g>
<g>
</g>
<g>
</g>
</svg>
